/* XPM */
static char *C1655621298[] = {
/* columns rows colors chars-per-pixel */
"48 48 109 2 ",
"   c #9F462C",
".  c #A0472D",
"X  c #A1482E",
"o  c #A64D32",
"O  c #AE5639",
"+  c #B15B3C",
"@  c #B66041",
"#  c #BD6846",
"$  c #BF6A48",
"%  c #D27544",
"&  c #D77C4B",
"*  c #D87E4D",
"=  c #C97551",
"-  c #CC7953",
";  c #D9804F",
":  c #CF835D",
">  c #DC8352",
",  c #DF8856",
"<  c #D7865D",
"1  c #D8875E",
"2  c #DB895F",
"3  c #E28C5A",
"4  c #E6915F",
"5  c #CC8866",
"6  c #DF8E64",
"7  c #D18F6F",
"8  c #D29373",
"9  c #D5997B",
"0  c #E69464",
"q  c #E99563",
"w  c #EC9967",
"e  c #E4986C",
"r  c #EC9B69",
"t  c #F09F6D",
"y  c #F2A16E",
"u  c #E9A57D",
"i  c #F4A472",
"p  c #F7A976",
"a  c #F8AA77",
"s  c #F6A979",
"d  c #FAAD7A",
"f  c #FFB27F",
"g  c #D59C81",
"h  c #D6A187",
"j  c #DFA381",
"k  c #D6A58E",
"l  c #DDAA8F",
"z  c #D9AB94",
"x  c #D8AF9A",
"c  c #DBB29E",
"v  c #E4A684",
"b  c #F5B287",
"n  c #FFB381",
"m  c #FDB789",
"M  c #FDB98C",
"N  c #E1B69F",
"B  c #E9B698",
"V  c #F7BC96",
"C  c #FBBD93",
"Z  c #F9BF98",
"A  c #DCB5A1",
"S  c #DDBCAC",
"D  c #FDC097",
"F  c #F6C19D",
"G  c #FAC19B",
"H  c #DCC1B4",
"J  c #F6C4A3",
"K  c #FAC5A2",
"L  c #FAC8A7",
"P  c #F5C7A8",
"I  c #F6C9AC",
"U  c #F9CBAC",
"Y  c #E8CEBD",
"T  c #F4CDB2",
"R  c #F8CDB0",
"E  c #F0CFB8",
"W  c #EBD0BE",
"Q  c #F7D0B6",
"!  c #F5D2BB",
"~  c #F9D3BB",
"^  c #E3CDC2",
"/  c #E6D6CC",
"(  c #EAD6CA",
")  c #EDDBCE",
"_  c #F3D6C2",
"`  c #F4D9C6",
"'  c #F3DBCC",
"]  c #E1D6D0",
"[  c #E5DAD6",
"{  c #EDDDD2",
"}  c #F2DED1",
"|  c #EEE0D6",
" . c #E6E2DF",
".. c #EDE2DB",
"X. c #F3E1D5",
"o. c #F4E4D9",
"O. c #E5E5E5",
"+. c #EBE6E3",
"@. c #EDE9E6",
"#. c #E7E7E8",
"$. c #E7E8E9",
"%. c #ECECEC",
"&. c #F0E7E0",
"*. c #F2E9E3",
"=. c #F1EEEC",
"-. c #F2F0EE",
";. c #EEEFF0",
":. c #EFF0F1",
">. c #F1F1F1",
/* pixels */
"%.%.#.O.O.O.%.=.@.O. .O.$.%.;.O.O.$.%.;.%.:.$.%.:.:.%.%.%.O.O.%.-.>.>.:.%.$.@.$.%.%.%.:.$.#.%.%.",
">.%.O.O.#.=.>.:.@.O.O.O.$.$.$. .W | %.%.%.%.O.@.%.%.:.%.%.O.O...:.>.:.%.O.O.$.$.O.@.%.%.%.@.%.%.",
"%.%.$.O.%.-.>.$.O.O.$.O. . .$.T f G @.:.$.$.O.$.@.%.%.%.$.@.P M } :.%.$.O.$.O.@.O.O.$.$.%.%.$.%.",
">.%.#.O.#.%.$.O.O.$.O.W M G ( M f M ! ` O. . .$.%.;.%.%.@.o.M f G ..Q I ..:.%.%.%.@.O.O.#.#.#.O.",
"O.O.O.O.O.%.%.@.%.$.) m f m I n f C D f ` $.O.$.%.%.%.| M K D f m T m f J +.$.%.%.%.%.%.%.%.%.%.",
"O.O.O.O.$.%.$.%.%.@.J f f D G f f G M f ! %.O.%.%.;.%.! f M D f f G M f f ! %.%.$.$.%.%.:.%.%.%.",
"#.$.$.$.%.%.%.>.:.} m f f G M f n G n n ) $.O.%.:.>.%.` f n G f f C F n f C  .$.$.$.%.:.%.%.%.%.",
">.=.%.%.%.%.%.=.%.K f f m K n f M G f m { O.$.%.:.:.:.| m f D m f n K n f f T H Y O.%.=.=.$.$.O.",
"=.%.;.%.$.%.%.:.{ m f f D M f n G M f M E ` %.%.%.-.*.{ M f M V f f D M f f M 8 g 8 / %.%.%.%.$.",
"$.%.%.%.#.$./ S u n n n G m n n F n f D m D @.%.:.-.G C D f n G n f M F f f n ! #.l c $.%.-.%.$.",
"O.O.O.O.O.O.h 9 b f f m G f f M G f n F f D O.%.%.) m m D f n G m f f F m f f G %.c 8 +.%.%.%.$.",
"^ (  .$.%.A 8 Y m f f G M f f D M f m D f b S z c 7 r n G m f C C f f C V f f m X.z z %.$.%.+.@.",
"C n G | :.S k T f f n K n n n F n f C M n u 9 x S [ P f D M f m G f f m G f n n B 9 S %.O.! Z J ",
"P f f G @.A 8 Z f f m G n f M G n n G M n ` $.$.O.$.` f M D f f Z m f n G m n i > h :.%.T n f D ",
"( m f f _ [ l d f f D C f f D M f m G n m | O.O.O.$.| m n F n f C M f f D C w % e X.:.) n f n _ ",
"O.F f f L @.< 4 n f C m f n D n f M G f C O.O.$.%.;.@.C f F M f m Z n n s e % r n ` >.R f f D @.",
"%.R f f M *.v % s n n n f m D n f G D f K %.$.%.:.:.=.G f D C f f G n 4 & ; p f f U =.D f f U %.",
":.! f n n _ m ; ; f n f f n n n n F n f U %.%.%.:.-.-.U f m K f f b 0 ; 4 d n f f G ' m f f Q %.",
":.X.n n n D M i > , f n n n f n n D f f Q :.$.%.%.:.>.~ f f G m p , & p f n n n f M L f f n ` :.",
">.=.D n n n D m i * , i n f n n n n f f ! :.$.O.@.:.>._ f f m f 3 ; d f n f f n n M m f f M *.%.",
"-.:.R n f f m C n d > > , f f n n f n f ` ;.@.$.%.>.>.` f f n 3 ; d f f n f f f M M n n f U %.%.",
"$.%.) m n f n M M m f y ; > a n f n f f ! ;.%.%.%.%.:.! n n y ; p n f f n n f M D n f n n ` %.O.",
"O.@...Z f n n n m D C n p > , r n n f f G -.:.%.$.$.O.P f f w 3 f n n f f m C M n n n f M *.%.O.",
" .#.$.P f n f n f n M Z M f 4 ; 4 f n n m } :.%.%.$...m f f * r n f n n M D m n n f f f K %.%.O.",
"O.O.%._ n n n f n f f m G m f t > , p f f U :.%.%.%.! f n d * y n f m G M n f f f n f f ! ;.%.O.",
"%.%.%...M f n n f n n n n D M n d > > q d M  .%.=.=.G f f d > y n n D m f n n n n n f m X.>.%.O.",
">.>.:.$.I f f n f n n n n m D n f n w > & i W $.%.' m f f d > i n D M f n n f f f n f L =.:.$.O.",
">.:.%.$...M f n n n f f n f M M n f n d w % j ] $.I f f f d ; i m C n f n f n n f n n X.>.$.O.O.",
"%.%.$.$.$.Q n n n f n n f n n m n n n f n y > 5 S M f f n f & w M n n n n f f n n f L =.O.O.O.O.",
"%.$.%.-.$.@.G f n f f n n n n n n n n n n n d N : , q d f n w r n f n n n n n n f M ..$.O.O.O.O.",
"@.$.$.%.@.%.' m f n f n n f n f n f f n n f m X./ 0 * % i f 4 > f f n f f n n f m ~ :.%.O.O.O.O.",
"%.$.O.$.$.$.%.L f n n n f n n f n n f n n f m ..{ m d w > , y & p n n n n f f f D *.%.%.O.O.O.O.",
"%.O.O.O.@.$.%.' m f n f n n f n n f n n n f C ..+.M n n i > % > i n n n f n f n _ %.%.%.%.$.@.O.",
"@.O.O.$.%.%.$.O.G f n f f n f n n f n f f f K $.=.D f n n i 3 , s n n n n n f C &.$.O.O.%.>.>.%.",
"$.O.#.=.;.$.O.O.! n n n n f n n n n n n n n ! %.:.Q f n n n p % w f f n n f n T %.%.%.%.>.>.>.>.",
"$.O.$.%.%.%.O.$.` n n n f n n f f n f f f C +.;.%.| m f n n n - O 1 f n n n n _ :.>.>.%.%.>.>.%.",
"%.#.#.#.#.@.%.%.` n f n n n n f n n f n f ! ;.%.%.O.P f f f d +   @ d n n n n ` %.%.%.%.%.>.%.$.",
"@.$.$.#.O.#.%.%.~ f n n n f n n f n n f C *.;.%.O.O.{ m n n n 1 o - n n f n n _ $.%.$.$.%.=.%.O.",
"$.%.%.$.#.+.O.$.U n n f n f f n f n f f R >.;.%.$.$.@.L f f n d + $ n n n n f R %.%.%.%.%.%.$.O.",
"$.=.%.%.#.O.O. .Z n n f n n f n n f f m X.:.=.%.%.%.%.` n n f d @ + s n n f f K %.%.%.=.%.%.$.O.",
"$.%.>.%.O.O.O...m n n f n n f n f n f C  .#.%.%.%.%.>...M f n f - o = d n f f C ..O.$.%.=.$.$.%.",
"%.%.$.$.@.%.%.` n n n f f n f n n n f L %.%.>.%.%.%.%.=.F f n f #   X - n n f n } %.>.%.$.O.#.#.",
"%.%.$.@.$.%.>.U f n n n n f n n n n n ~ >.:.%.%.%.$.%.%.I f n d +   o @ i n n f Q >.%.%.$.@.#.#.",
"-.>.%.O.O.%.*.C f f f n f n n f n n n ' >.=.%.%.%.$.%.$._ f n p +   X O 6 n n f D =.>.;.%.$.@.%.",
"%.>.%.O.$.>.` n f f f f n n n n n f m X.%.$.%.$.%.%.=.%.} m f s + .   O < f f n m } %.%.%.%.=.>.",
":.=.%.O.%.>.o.U Z m m m n n m m M D R @.%.$.@.O.#.$.>.%.&.C n d - # = 2 a f f f m ! @.#.%.$.:.>.",
"%.:.%.O.%.>.>.>.+...{ } ' ' ' | &.%.;.=.%.$.+.O.#.$.%.>.%..._ I Z Z Z C D K R _ { +.#.#.$.%.%.=.",
"%.>.>.O.%.>.>.%.@.$.;.:.:.;.%.$.%.%.>.>.%.O.O.#.#.O.%.%.%.#.O.O.O.#...@.=.-.>.:.%.O.#.$.$.%.%.%."
};
