/* XPM */
static char *E1655621298[] = {
/* columns rows colors chars-per-pixel */
"48 48 155 2 ",
"   c #000000",
".  c #0A0702",
"X  c #0D0903",
"o  c #0D0C0C",
"O  c #140D04",
"+  c #1C1306",
"@  c #161616",
"#  c #1B1B1B",
"$  c #211707",
"%  c #271A08",
"&  c #2B1D09",
"*  c #2F2009",
"=  c #33220A",
"-  c #39270B",
";  c #3E2A0C",
":  c #242424",
">  c #21272C",
",  c #24292D",
"<  c #292D2F",
"1  c #262D31",
"2  c #292F33",
"3  c #2C3134",
"4  c #2E3438",
"5  c #323535",
"6  c #343837",
"7  c #32373B",
"8  c #343A3D",
"9  c #3A3C3A",
"0  c #432D0D",
"q  c #47300E",
"w  c #4B330F",
"e  c #513710",
"r  c #533913",
"t  c #5C3E13",
"y  c #3E403B",
"u  c #5E4013",
"i  c #634314",
"p  c #694715",
"a  c #6D4A16",
"s  c #724D17",
"d  c #7D5419",
"f  c #42433D",
"g  c #4B493D",
"h  c #3A3F43",
"j  c #3D4346",
"k  c #454545",
"l  c #4D4C40",
"z  c #454A4E",
"x  c #4D4D4D",
"c  c #514F42",
"v  c #575344",
"b  c #5A5645",
"n  c #5E5947",
"m  c #4A4F52",
"M  c #545454",
"N  c #515659",
"B  c #595C5D",
"V  c #655C44",
"C  c #625C48",
"Z  c #67604A",
"A  c #6B634C",
"S  c #736A4F",
"D  c #776D50",
"F  c #796E51",
"G  c #7E7353",
"H  c #585D60",
"J  c #626262",
"K  c #626669",
"L  c #666A6D",
"P  c #6B6B6B",
"I  c #6A6E70",
"U  c #767676",
"Y  c #73777A",
"T  c #7B7D7E",
"R  c #80561A",
"E  c #875B1B",
"W  c #8B5E1C",
"Q  c #8F611D",
"!  c #92621D",
"~  c #98661E",
"^  c #9C691F",
"/  c #916625",
"(  c #9E6B20",
")  c #A36E21",
"_  c #A57021",
"`  c #AE7523",
"'  c #B07623",
"]  c #BA7E25",
"[  c #B67D29",
"{  c #817554",
"}  c #857856",
"|  c #897C57",
" . c #BD8026",
".. c #C28326",
"X. c #C98728",
"o. c #CF8C29",
"O. c #D18D2A",
"+. c #DD952C",
"@. c #E0972D",
"#. c #E49A2E",
"$. c #EA9E2F",
"%. c #EEA130",
"&. c #EDA539",
"*. c #F4A531",
"=. c #FFAD33",
"-. c #FAAE3B",
";. c #FFB135",
":. c #FFB33D",
">. c #93835B",
",. c #9D8B5D",
"<. c #9F8D60",
"1. c #A28F60",
"2. c #A59161",
"3. c #AA9664",
"4. c #AF9965",
"5. c #B29C66",
"6. c #BBA36A",
"7. c #C0A263",
"8. c #C5AB6D",
"9. c #CAAF6F",
"0. c #CEB271",
"q. c #D4B773",
"w. c #D8BA74",
"e. c #E4C379",
"r. c #ECCA7C",
"t. c #F5D17F",
"y. c #FED47A",
"u. c #7C7F81",
"i. c gray52",
"p. c #848789",
"a. c #8C8D8D",
"s. c #8C8F91",
"d. c #8E9193",
"f. c #959797",
"g. c gray60",
"h. c #9C9EA0",
"j. c #9FA2A3",
"k. c #A2A4A4",
"l. c #ADAEAE",
"z. c #B3B4B5",
"x. c #B6B8B9",
"c. c #BCBCBC",
"v. c #F5D280",
"b. c #FAD581",
"n. c #FFDA84",
"m. c #BFC0C1",
"M. c #C3C4C4",
"N. c #CBCCCC",
"B. c #D2D2D3",
"V. c #DCDDDD",
"C. c #E5E5E5",
"Z. c #E8E8E7",
"A. c #ECECEC",
"S. c #F0EFEF",
"D. c #F2F2F2",
/* pixels */
"A.A.C.C.C.Z.A.S.Z.C.V.C.A.A.S.C.Z.A.S.C.M.f.M : h I k.N.Z.Z.Z.S.D.D.D.S.Z.Z.A.A.A.A.A.A.A.C.A.A.",
"D.A.C.C.Z.A.D.S.Z.C.C.C.A.A.A.C.B.l.T k # .     > 1 4 j K s.z.V.S.D.D.A.Z.C.C.Z.C.Z.A.A.A.A.A.A.",
"A.A.Z.C.A.S.D.A.Z.Z.Z.C.V.c.d.M : o           o , 2 2 2 1 1 7 m Y k.N.V.Z.A.Z.Z.C.C.A.Z.A.A.A.Z.",
"D.A.Z.C.Z.A.A.Z.C.N.k.P 9 @                     , 2 2 2 2 2 1 1 1 2 j H p.z.B.A.D.A.C.C.C.C.C.C.",
"Z.Z.C.Z.Z.V.x.i.x : .                         . , 2 2 2 2 2 2 2 3 1 1 1 1 4 z P f.m.V.A.D.A.A.A.",
"Z.V.M.g.J 2 o                                 o , 2 2 2 2 2 2 2 1 3 3 2 2 2 1 1 1 h N u.l.B.Z.S.",
"U k #                                           , 2 2 2 2 2 2 2 2 2 2 2 2 2 2 2 2 1 1 1 2 j K d.",
"                                              . , 2 2 2 2 2 2 2 2 2 2 2 2 2 2 2 2 2 2 2 2 1 1 1 ",
"                                              . , 2 1 2 2 2 2 3 3 1 3 2 2 2 1 3 2 2 2 2 2 2 2 2 ",
"                                              o 2 2 1 1 1 2 2 2 1 3 2 2 2 2 3 1 2 2 2 2 2 2 2 2 ",
"                                    . + - i W [ 7.<.G v f 4 1 1 1 1 3 2 2 1 3 3 2 2 2 2 2 2 2 2 ",
"                          . + ; i ! ] O.*.=.=.:.y.n.n.v.e.8.1.G n f 3 2 1 1 1 1 3 2 2 2 2 2 2 2 ",
"                . $ 0 p ! ] +.*.=.=.=.=.=.=.=.:.y.n.n.n.n.n.n.n.t.e.8.2.} n f 6 1 2 1 2 2 2 2 2 ",
"      X $ 0 a ~ ..@.*.=.;.=.=.=.=.=.=.=.=.=.=.:.y.n.n.n.b.n.n.n.n.n.n.n.n.t.e.9.3.G Z f 6 3 1 1 ",
"w s ^ ..#.*.=.=.=.=.=.=.=.=.=.=.=.=.=.=.=.=.=.-.y.b.n.n.n.n.n.n.n.n.n.n.n.n.n.n.n.n.v.e.0.4.} Z ",
"*.=.=.;.=.=.=.=.=.=.=.=.=.=.=.=.=.=.*.+.] ( s r V | 3.9.e.v.b.n.n.n.n.b.n.n.n.n.n.n.n.n.n.n.n.t.",
"=.=.=.=.=.=.=.=.=.=.=.=.=.$.O.' E u - + .       1 1 3 5 y b F ,.6.q.r.b.n.n.n.n.n.n.n.b.n.n.n.n.",
"=.=.=.=.=.=.=.*.+...^ s w & O                   , 1 1 1 2 1 1 1 3 9 l A >.3.9.e.v.n.n.n.n.n.n.b.",
"=.*.$.o.` E t - + .                       O p / ,.{ y 3 3 2 1 1 1 1 1 1 > 1 7 y b F ,.6.q.r.n.n.",
"s w & O                   O % 0 p d + r - 0 =.:.y.b.C b S y >.G C g 9 3 1 1 2 1 1 1 1 3 y l Z G ",
"              O +   -   p O.$.*.=.$.= ` E w *.:.y.b.Z <.6.c v.b.b.r.w.} 4 b 3 y 8 3 1 1 2 1 1 1 ",
"    X   q E ' O.^ + [ * ! ;.=.=.=.$.0 +. .w =.:.y.b.A 8.e.n r.n.n.n.n.1.l 6.y 3.w.6.,.C 3 4 3 3 ",
"p O R O _ ;.=.;.` w *.p W =.=.=.=.$.- ..^ w %.&.r.t.Z 3.0.v r.n.n.n.n.<.G b.Z 6.n.n.n.6.y >.y G ",
") ; @.0 ) ;.=.;.` e =.a Q =.=.=.%.X.+ 0 = + 0 = g C y c C y 0.v.b.n.n.<.} n.S 6.n.n.n.5.n e.b 5.",
") r =.t ) ;.=.;.` + _ & t Q p w & +           o > 1 1 2 1 3 y c Z G <.D l 5.f 6.n.n.n.5.D b.D 4.",
"_ & ] = d ` W a -   X                           , 2 2 2 2 2 2 1 1 1 2 2 2 6 2 b } ,.6.>.c 8.l 5.",
"w   +   .                                     . , 2 2 2 2 2 2 2 2 2 2 2 2 2 2 1 2 1 4 4 3 y 3 Z ",
"                                              o , 3 2 2 2 2 2 2 2 2 2 2 2 2 2 2 2 2 2 2 2 1 2 1 ",
"                                                , 2 2 2 2 2 2 2 2 2 2 2 2 2 2 2 2 2 2 2 2 2 2 2 ",
"                                              . , 2 2 2 2 2 2 2 2 2 2 2 2 2 2 2 2 2 2 2 2 2 2 2 ",
"                                              . , 2 2 2 2 2 2 2 2 2 2 3 2 2 2 2 2 2 2 2 2 2 3 1 ",
"                                              . , 2 2 2 2 2 2 2 2 2 2 2 2 2 2 2 2 2 2 2 2 2 2 3 ",
"                                              . 1 1 3 1 2 2 2 2 2 2 2 2 2 2 2 2 2 2 2 2 2 2 2 2 ",
"                                              o > 1 1 3 2 2 2 2 2 2 2 2 2 2 2 2 2 2 3 2 2 2 2 2 ",
"                                                1 2 3 2 2 2 2 2 2 2 2 2 2 2 2 2 2 2 2 2 2 2 2 2 ",
"                                              . > 2 2 2 2 2 2 2 2 2 2 2 2 2 2 2 2 2 2 2 2 2 2 2 ",
"                                              o , 2 2 2 2 2 2 2 2 2 2 2 2 2 2 2 2 2 2 2 2 2 2 2 ",
"                                                , 2 2 2 2 2 2 2 2 2 2 2 2 2 2 2 2 2 2 2 2 2 2 2 ",
"                                              o , 2 2 2 2 2 2 2 2 2 2 2 2 2 2 2 2 2 2 2 2 2 2 2 ",
"                                                , 2 2 2 2 2 2 2 3 2 2 2 2 2 2 2 2 2 2 2 2 2 2 2 ",
"                                              . , 2 2 2 2 2 2 2 2 2 2 2 2 2 2 2 2 2 2 2 2 2 2 2 ",
"                                              o , 2 2 2 2 2 2 2 2 2 2 2 2 2 2 2 2 2 2 2 2 2 2 2 ",
"                                                , 2 2 2 2 2 2 2 2 2 2 2 2 2 2 2 2 2 2 2 2 2 2 2 ",
"                                              . , 2 2 2 2 2 2 2 2 2 2 2 2 2 2 2 3 2 2 2 2 2 2 2 ",
"                                                , 2 2 2 2 2 2 2 2 2 2 2 2 2 2 2 2 2 1 1 1 1 1 2 ",
"a.U B k 5 : @ o .                             . , 2 2 2 2 2 2 2 1 1 1 1 1 1 1 4 7 h z N K Y a.h.",
"D.D.S.C.C.V.N.c.j.a.U J x 5 : # o .           . , 1 2 < 2 3 4 8 j z B L u.s.j.z.m.N.B.V.Z.A.S.D.",
"A.D.A.C.S.D.D.D.A.A.S.S.A.C.B.c.l.g.i.L m 5 # o 2 j N L u.d.k.z.M.B.V.C.S.D.D.D.S.Z.Z.Z.Z.A.A.Z."
};
