/* XPM */
static char *ac771044e17145c0f80768c9e5ae1778Zo5RajRISAGEo2iY[] = {
/* columns rows colors chars-per-pixel */
"48 48 124 2 ",
"   c #161616",
".  c #191A1A",
"X  c #211C1A",
"o  c #27211D",
"O  c #222222",
"+  c #323232",
"@  c gray22",
"#  c #503728",
"$  c #794C32",
"%  c #444444",
"&  c #484949",
"*  c #55504D",
"=  c gray37",
"-  c #676767",
";  c #7A6E67",
":  c gray47",
">  c #B1673D",
",  c #D5793F",
"<  c #847B76",
"1  c #A17D68",
"2  c #C87343",
"3  c #D77C43",
"4  c #BD8769",
"5  c #D7814C",
"6  c #D78756",
"7  c #D88551",
"8  c #D98856",
"9  c #DA8C5C",
"0  c #E28146",
"q  c #EC874B",
"w  c #F68B4D",
"e  c #FE8E4E",
"r  c #FA8E50",
"t  c #FF9252",
"y  c #FF9659",
"u  c #FE985D",
"i  c #DA966C",
"p  c #DC9C75",
"a  c #FC9B63",
"s  c #F49E6D",
"d  c #EE9D70",
"f  c #DFA27D",
"g  c #FBA06C",
"h  c #EFA67D",
"j  c #F4A072",
"k  c #FBA573",
"l  c #FAAA7B",
"z  c #929292",
"x  c #9A9A9A",
"c  c #A29F9D",
"v  c #A5A5A5",
"b  c gray67",
"n  c #B8B1AD",
"m  c gray69",
"M  c #DCA380",
"N  c #DEAF92",
"B  c #D9B09C",
"V  c #E2A681",
"C  c #E3A987",
"Z  c #E0AE8F",
"A  c #E9AB8A",
"S  c #F0AE8B",
"D  c #F3B18B",
"F  c #F8B48C",
"G  c #E4B69B",
"H  c #E7B89B",
"J  c #F6B793",
"K  c #F6BF9E",
"L  c #F8BD9B",
"P  c #D6B5A0",
"I  c #DEBFAF",
"U  c #E5BEA5",
"Y  c #F0BCA0",
"T  c #DEC2B4",
"R  c #E7C2AE",
"E  c #EEC3AB",
"W  c #F6C2A4",
"Q  c #F0C4AA",
"!  c #E4C5B3",
"~  c #EEC9B3",
"^  c #E5C6B8",
"/  c #EBCEBE",
"(  c #F3CBB4",
")  c #C4C4C5",
"_  c #CECECE",
"`  c #D8C6C3",
"'  c #DCCFCC",
"]  c #D3D3D4",
"[  c #DEDEDE",
"{  c #E4CFC2",
"}  c #E7D3C7",
"|  c #EED2C3",
" . c #E6D6CD",
".. c #EAD6CA",
"X. c #EFD9CB",
"o. c #F3D7C7",
"O. c #EDDCD2",
"+. c #E2DEDF",
"@. c #EBE2DD",
"#. c #F2E6DE",
"$. c #CFD4E0",
"%. c #D1D6E1",
"&. c #D4D9E5",
"*. c #DBDDE4",
"=. c #D7DCE9",
"-. c #DADEEA",
";. c #DEE1EB",
":. c #E5E5E5",
">. c #EAE5E3",
",. c #EDE9E6",
"<. c #E3E5EA",
"1. c #E7E8EB",
"2. c #EBEBEC",
"3. c #F0EFEF",
"4. c #F0F0EF",
"5. c #E9EAF0",
"6. c #EDEFF0",
"7. c #EFEFF0",
"8. c #EEF0F0",
"9. c gray94",
"0. c #F1F2F2",
"q. c #F3F3F3",
"w. c #F4F4F4",
"e. c gray96",
/* pixels */
"2.2.:.:.:.1.2.2.,.[ [ ;.2.4.8.:.:.:.8.8.8.2.:.8.8.8.2.2.2.@.:.2.4.8.e.4.2.:.2.2.2.8.2.2.1.:.2.8.",
"9.2.:.:.,.2.9.4.2.:.:.:.,.2.:.:.:.:.2.2.2.2.:.2.2.2.8.2.2.:.;.2.4.4.4.2.:.:.:.:.@.1.2.2.2.2.2.2.",
"9.2.:.:.2.4.9.2.,.:.:.;.:.:.:.;.:.:.8.8.2.:.:.:.2.2.8.2.:.2.2.8.8.8.2.1.:.:.:.:.:.:.:.2.2.2.1.2.",
"9.2.1.:.,.1.2.:.:.:.:.@.:.:.@.:.:.@.2.2.2.[ :.:.2.2.2.2.8.q.q.9.8.8.2.,.2.8.4.8.8.1.:.:.:.:.:.:.",
":.:.;.:.:.2.2.,.,.1.:.2.2.2.:.2.:.:.2.8.8.,.:.:.2.2.2.8.9.w.q.8.2.:.2.:.:.2.2.2.2.2.2.2.1.2.2.2.",
":.:.@.:.1.1.2.2.4.2.1.4.8.2.2.4.2.:.1.8.8.:.:.,.8.8.,.2.q.q.8.,.:.:.:.2.:.2.:.2.:.:.8.2.4.2.2.8.",
"1.1.1.,.2.2.2.4.2.2.1.4.4.4.8.4.8.2.:.2.:.1.;.2.8.4.2.2.2.8.,.:.:.:.:.:.:.,.2.:.:.2.2.4.2.2.2.2.",
"4.4.2.2.2.2.2.4.2.2.1.2.4.4.4.4.9.q.,.:.:.@.2.8.4.8.8.2.:.,.:.:.:.2.2.2.:.1.:.:.2.2.4.4.2.2.:.@.",
"4.4.2.2.2.2.2.8.2.:.:.:.8.8.2.4.w.w.1.:.@.:.2.4.2.4.4.1.@.:.:.:.2.2.:.:.1.1.2.2.4.4.4.2.2.2.2.:.",
"1.1.1.2.:.:.2.2.:.:.:.:.2.2.8.4.4.8.2.2.2.2.2.2.4.8.w.2.1.:.1.2.2.1.>.:.:.1.2.2.4.4.4.2.2.4.2.1.",
"[ @.>.>.:.2.2.:.:.>.:.:.,.2.8.2.2.2.8.2.2.2.:.2.4.8.w.4.2.2.8.8.2.:.:.[ :.2.:.1.2.2.2.1.2.2.2.1.",
"[ ;.>.1.2.2.:.;.2.2.8.8.8.2.8.:.2.2.2.2.2.8.2.2.2.2.w.8.4.2.:.:.:.:.[ :.:.@.;.@.2.2.2.2.1.2.2.2.",
"[ :.1.6.2.2.2.:.2.2.4.4.9.9.8.,.2.2.2.2.2.4.2.1.:.:.4.4.2.2.:.>.:.:.;.:.1.1.2.1.,.2.4.2.1.1.,.4.",
";.v b ;.2.2.2.2.2.8.2.4.w.9.2.2.2.4.2.2.8.2.2.1.@.:.2.2.2.:.:.:.>.,.>.:.,.2.4.2.:.2.4.2.:.,.2.2.",
":.z % x 8.6.2.2.2.2.2.8.2.2.2.8.4.4.4.4.8.2.:.:.:.1.2.:.:.1.:.:.1.1.1.2.4.9.4.2.:.4.4.1.:.1.2.2.",
",.] z T 8.8.6.2.2.8.2.2.,.:.:.:.2.4.w.2.2.:.:.:.2.8.2.2.2.8.2.:.:.,.2.4.9.9.2.,.1.4.4.2.,.2.4.2.",
"2.4.q.,.@. .@.8.4.2.1.1.;.@.:.:.1.1.2.2.4.2.1.2.4.4.4.2.2.4.2.1.:.2.4.9.4.2.1.2.2.q.8.4.2.2.2.2.",
"4.4.8.:.! N f @.4.2.>.[ [ :.1.1.>.:.:.1.2.2.2.2.4.4.4.4.4.4.1.1.,.4.8.8.1.1.,.2.4.4.q.9.2.2.2.2.",
"4.w.8.2.@.B 8 h } 8.8.:.:.>.,.2.1.@.:.1.2.2.1.1.2.4.4.4.2.1.2.2.4.4.4.4.:.:.:.,.4.e.q.8.2.2.2.8.",
"4.4.2.8.2.1.! 7 7 ! 8.1.:.:.,.8.8.2.1.4.4.2.1.@.1.4.w.2.,.2.2.4.2.2.4.2.:.:.:.1.2.4.2.2.,.W #.2.",
"4.2.2.1.2.1.1.R 7 5 R ,.1.2.,.2.2.4.4.4.4.4.1.1.2.4.4.2.2.2.4.2.1.2.2.2.1.,.1.2.1.2.1.,.O.g o.2.",
"2.2.1.>.2.2.1.1.! 7 5 U :.) ;.:.2.4.e.w.4.4.2.8.4.2.4.2.2.4.2.1.1.4.4.9.2.1.2.2.,.:.:.1.( u X.:.",
":.:.1.2.2.4.e.8.4.! 5 5 B 1 G :.1.4.w.8.e.4.4.2.1.>.>.1.4.4.2.2.,.1.4.8.2.2.2.2.2.<.E J g u O.:.",
"@.:.:.1.2.4.9.4.4.2.Z , 9 h a / :.2.4.4.8.2.4.2.2.1.1.2.4.2.2.2.2.2.2.2.2.2.2.2.2.*.j e e u O.:.",
";.,.:.2.@._ [ 8.:.2./ 5 3 N J a E >.2.1.1.:.6.2.1.2.2.2.2.2.2.2.2.2.2.2.2.6.2.2.:.$.K K K L @.:.",
"2.8.2.2.m + * C 4 n :.i 3 p  .k t J >.<.:.:.2.2.;.:.2.2.2.2.2.8.2.2.2.1.:.1.2.2.;.;.1.4.8.8.8.:.",
"q.w.8.[ =   X 2 3 ; :.} T ' [ { s t S +.2.2.2.2.:.=.1.2.2.2.1.;.;.;.;.;.<.1.2.8.;.&.4.8.4.4.2.:.",
"8.4.8.b O . . $ > < :.R h d d A D y y W 2.2.2.2.1.&.;.1.2.2.2.2.2.2.2.2.2.2.2.2.;.;.4.w.2.2.1.:.",
"2.2.2._ @   . o # c B 0 r t t t t t e l 1.2.2.2.1.=.=.;.2.2.2.2.2.2.2.2.2.2.8.2.&.$.2.8.2.:.:.:.",
"2.2.2.:.: O     % $.T 6 0 q w r e a l ( 2.2.2.2.2.;.&.;.2.2.2.2.5.2.2.6.2.2.2.;.&.$.:.1.:.:.:.:.",
":.2.2.8.[ x & - I 5.<.' B M f V H O.,.2.6.2.1.2.8.;.&.=.1.1.8.2.5.1.<.;.;.1.;.=.&.] 1.2.:.....:.",
"2.:.:.:.2.2.[ 8.2.1.:.1.<.<.<.;.;.<.1.2.2.2.1.;.1.;.=.&.=.;.;.;.=.=.&.&.&.&.&.&.$.] | ,.~ g Q :.",
"2.1.@.;.:.2.2.8.8.:.:.:.:.2.2.2.1.:.;.:.;.<.;.=.;.-.-.&.%.&.=.[ &.] $.$.$.$.$.$.$.` g g y F @.>.",
":.:.:.2.8.:.:.:.2.2.@.:.:.2.8.2.2.4.1.1.1.2.:.1.1.2.6.1.>.;.1.1.2.1.;.;.&.] $.$.&.^ y t F 4.9.2.",
"1.@.,.8.8.2.:.;.2.2.2.:.:.2.8.2.2.4.2.2.8.2.2.2.9.8.2.1.:.@.:.2.2.2.1.1.1.;.[ :.2.2.W l #.q.q.4.",
"1.:.:.8.2.2.:.:.2.2.2.:.2.8.8.2.2.2.2.1.2.4.2.4.2.1.1.1.:.1.,.1.2.2.2.1.1.>.1.2.2.4.2.#.8.9.q.2.",
"1.:.;.,.:.2.2.2.8.2.:.,.2.8.2.,.1.4.4.2.2.1.4.2.2.:.:.:.1.2.2.9.9.4.4.2.2.2.1.1.2.2.2.1.2.4.4.1.",
":.2.,.:.:.:.2.2.4.8.2.2.8.2.2.2.1.2.4.4.4.4.4.2.:.:.,.2.2.9.9.e.e.4.2.2.2.4.4.2.1.2.1.1.2.8.2.[ ",
"2.1.2.:.:.@.:.2.4.4.2.8.8.2.2.2.1.1.8.4.9.4.2.2.1.,.1.2.9.9.4.9.4.1.2.2.4.4.4.4.2.2.2.2.2.2.2.:.",
",.8.8.2.2.:.:.:.8.8.8.8.2.2.2.2.1.>.2.2.4.4.4.2.2.2.2.2.2.2.2.2.2.,.,.1.2.2.2.2.2.2.2.4.2.,.1.1.",
":.8.4.2.@.;.:.2.2.8.4.8.2.2.2.:.>.:.2.1.:.:.2.2.2.2.4.2.1.:.:.>.:.:.2.:.:.:.:.1.>.,.1.2.2.1.1.2.",
"2.2.1.2.2.2.2.2.2.:.2.2.2.:.,.2.,.1.2.8.2.4.4.2.1.2.4.2.:.:.1.1.2.:.2.2.:.@.:.,.1.2.4.4.1.>.>.>.",
"4.2.1.:.:.2.4.4.2.:.2.2.,.2.2.8.2.1.2.4.4.4.4.2.2.2.2.2.1.:.2.2.2.2.2.2.2.;.1.2.4.4.4.2.2.:.:.1.",
"2.4.8.:.:.2.4.w.,.1.2.2.:.1.2.4.2.2.2.4.4.4.2.2.2.,.2.2.2.2.2.4.4.:.2.4.8.:.1.4.4.4.4.4.2.1.2.2.",
"2.4.2.:.:.4.w.4.2.:.:.:.:.2.2.8.2.:.2.2.2.2.2.1.1.,.2.8.2.2.4.4.4.:.4.4.2.1.2.4.8.2.2.2.2.2.4.w.",
"4.4.2.:.2.4.w.4.2.2.:.2.2.:.1.2.8.2.2.2.2.,.:.1.:.2.4.2.2.2.4.4.2.:.2.2.2.2.4.2.2.2.:.2.2.1.2.4.",
"2.4.4.:.2.w.w.4.2.:.1.2.2.2.,.2.2.2.4.4.2.:.:.:.:.1.4.2.4.2.1.2.2.1.2.2.8.4.4.8.1.:.:.:.1.2.2.4.",
"2.4.4.:.2.4.w.8.:.2.2.4.4.8.2.:.2.2.w.8.2.:.:.:.,.:.2.2.2.:.:.:.:.:.2.2.2.4.4.4.2.:.@.,.1.2.2.2."
};
