/* XPM */
static char *_66536c53c9d445eabc24480ea8c457aeAvtEPgUqKO9eyTt[] = {
/* columns rows colors chars-per-pixel */
"48 48 128 2 ",
"   c #161717",
".  c #1B1A1A",
"X  c #211D1B",
"o  c #232323",
"O  c gray18",
"+  c #3F2F26",
"@  c #3E3E3E",
"#  c #413B38",
"$  c #63402C",
"%  c #4E4E4E",
"&  c #5B5C5D",
"*  c #676767",
"=  c #786C64",
"-  c #A05F39",
";  c #D5783F",
":  c #BF6F41",
">  c #BC7B56",
",  c #D67B43",
"<  c #D77E48",
"1  c #8A837F",
"2  c #B38164",
"3  c #DB824C",
"4  c #D88653",
"5  c #D98C5D",
"6  c #E58145",
"7  c #E98448",
"8  c #F38A4C",
"9  c #FF8F4E",
"0  c #F68F52",
"q  c #FC8F50",
"w  c #FF9252",
"e  c #F7955D",
"r  c #FD965A",
"t  c #FE985E",
"y  c #DB8F61",
"u  c #D79169",
"i  c #DD986D",
"p  c #FE9B63",
"a  c #F59C69",
"s  c #E29A71",
"d  c #DEA07A",
"f  c #F3A174",
"g  c #F9A371",
"h  c #F4A67A",
"j  c #FBAA7B",
"k  c #898989",
"l  c #939393",
"z  c gray62",
"x  c #A9A19C",
"c  c #A6A6A6",
"v  c #ADACAB",
"b  c #B6B6B6",
"n  c #DCA483",
"m  c #DEA887",
"M  c #D1A58A",
"N  c #DEAA8B",
"B  c #DFB196",
"V  c #DEB59D",
"C  c #ECAB86",
"Z  c #F6AC81",
"A  c #F9AE82",
"S  c #F8B086",
"D  c #F3B18B",
"F  c #E1B497",
"G  c #E9B396",
"H  c #F6B793",
"J  c #F3BA9A",
"K  c #DAC1B7",
"L  c #DAC4BE",
"P  c #DFC8BD",
"I  c #F5C0A1",
"U  c #F0C7AF",
"Y  c #F8C6A9",
"T  c #E5C6B4",
"R  c #E4C8B6",
"E  c #E3CCBE",
"W  c #F4CCB4",
"Q  c #F3CEB8",
"!  c gray80",
"~  c #DFCDC6",
"^  c #DDCECB",
"/  c #D4CFD4",
"(  c #D2D2D2",
")  c #DCD5D3",
"_  c #DBD7DB",
"`  c #DDDCDC",
"'  c #E5D2C6",
"]  c #EED2C2",
"[  c #E4D4CA",
"{  c #EAD7CC",
"}  c #EDDACE",
"|  c #F1D4C3",
" . c #F0D7C8",
".. c #ECDDD5",
"X. c #E5DCD8",
"o. c #E9DDD8",
"O. c #F1DDD2",
"+. c #E7E1DE",
"@. c #EBE2DE",
"#. c #F3E1D6",
"$. c #CFD4E0",
"%. c #D1D6E2",
"&. c #D5D9E4",
"*. c #DADCE4",
"=. c #D6DBE9",
"-. c #DADEEA",
";. c #DFE1E5",
":. c #DEE1EB",
">. c #E5E5E5",
",. c #EAE5E3",
"<. c #EBE9E7",
"1. c #E3E5EB",
"2. c #E7E8EA",
"3. c #EBEBEB",
"4. c #ECECEC",
"5. c #ECEDED",
"6. c #EDEEEE",
"7. c #EEEEEE",
"8. c #EFEFEF",
"9. c #F1ECE9",
"0. c #F0F0EF",
"q. c #EEEFF0",
"w. c #EEF0F1",
"e. c gray94",
"r. c #F1F1F0",
"t. c #F1F3F3",
"y. c #F3F3F3",
"u. c #F4F4F4",
/* pixels */
"7.7.>.>.>.>.3.7.>.>.` >.3.7.3.>.>.>.7.7.7.3.<.3.7.7.3.7.7.>.>.3.e.e.y.0.2.2.<.3.3.3.6.6.<.>.3.5.",
"7.3.>.>.3.7.e.7.3.>.>.>.<.3.<.;.>.>.7.3.3.3.>.3.7.3.7.3.3.>.>.2.0.e.0.7.>.>.>.2.>.<.3.3.3.3.3.0.",
"7.3.>.>.3.7.e.7.>.>.>.>.>.>.>.>.>.>.7.7.3.>.>.>.3.3.7.3.>.3.3.3.7.0.3.3.>.2.2.>.>.>.2.<.5.3.<.<.",
"e.7.>.>.>.3.3.>.>.>.>.>.>.>.>.>.>.>.3.3.<.;.>.<.3.7.7.7.7.u.u.e.w.0.3.>.<.4.4.0.0.2.>.>.>.>.>.2.",
">.>.>.;.>.3.3.<.3.>.>.3.3.3.>.4.>.>.3.7.q.>.>.>.3.7.3.7.u.u.u.e.3.>.3.2.>.3.3.4.<.3.3.3.<.0.3.<.",
">.>.>.>.3.3.3.3.7.3.3.7.7.7.7.w.3.>.3.7.7.3.>.3.7.7.3.7.0.e.e.<.>.>.>.2.>.3.2.<.2.<.6.6.6.6.6.5.",
">.<.<.3.3.3.3.7.7.3.4.7.7.0.w.e.7.4.3.3.>.>.>.3.7.e.3.7.7.7.2.>.+.4.<.>.>.3.2.2.>.2.0.6.6.3.3.3.",
"7.7.7.3.3.3.7.w.7.3.>.7.e.0.9.e.y.e.>.>.>.>.3.7.e.e.7.3.>.>.>.>.>.4.3.>.3.>.>.>.3.5.5.6.3.<.2.>.",
"e.7.7.3.3.3.3.7.3.>.>.>.7.7.7.0.u.e.3.>.>.>.7.7.7.7.e.7.>.>.>.>.<.4.2.>.>.<.3.4.e.e.7.3.4.w.3.>.",
"3.3.3.3.>.<.3.3.>.>.>.>.3.7.7.q.e.7.7.3.3.3.3.3.7.0.e.4.>.>.>.3.4.2.>.>.>.2.<.4.7.w.q.2.4.w.9.<.",
"` >.>.>.>.3.3.>.>.>.>.>.2.4.7.3.7.7.7.3.3.3.>.3.e.e.u.7.3.3.7.7.<.>.;.>.>.2.>.2.3.9.3.<.4.4.3.>.",
"` >.>.>.3.3.>.>.>.7.7.7.7.7.7.>.3.3.7.3.3.7.7.3.3.3.u.u.7.3.4.>.>.;.+.>.2.+.>.>.4.4.3.3.3.3.3.3.",
";.>.>.3.4.4.3.>.7.7.7.e.u.e.7.3.3.3.3.3.4.w.7.3.>.>.7.7.7.3.>.>.>.>.>.>.>.3.3.3.2.7.w.3.<.>.3.7.",
">.>.3.7.4.4.3.4.7.7.e.e.e.e.7.4.3.7.3.7.7.7.3.>.>.>.4.3.3.>.>.>.>.2.>.>.2.3.2.>.>.7.W H +.3.4.7.",
">.>.<.7.4.7.4.4.3.3.7.7.e.4.3.7.e.t.0.0.w.2.>.;.>.1.1.>.>.2.>.>.>.2.>.;.;.$.%.%.%.] t w J <.3.3.",
">.3.7.7.7.7.7.4.3.7.7.>.>.>.>.>.w.2.7.1.:.:.:.-.:.:.:.*.*.*.;.*.*.*.%.$.$.$.$.$.$.L t t r I 3.7.",
"7.e.7.3.7.e.7.7.0.7.>.>.:.:.:.:.:.1.1.1.2.3.2.1.1.:.=.%.=.-.-.-.&.$.%.&.%.&.%.$.$./ W O.I p Q 3.",
"7.e.e.3.3.b * k ( q.1._ K V B V R ,.3.q.4.4.2.1.7.:.=.=.1.2.7.2.2.1.:.:.:.:.:.=.$.%.w.e.w.] | 7.",
"0.e.e.>.l O     & ` ' u 3 6 8 8 0 g H  .4.4.3.3.q.-.=.=.3.4.3.4.7.3.3.3.w.2.2.:.%.%.w.w.7.7.w.q.",
"u.e.7._ @   . X + v N 6 q w w w w q 9 j 3.3.3.4.2.-.=.1.q.4.4.4.3.3.7.7.4.q.3.q.-.&.1.3.7.e.w.4.",
"e.7.e.v o   . $ - 1 @.G a e e f Z r w J 7.3.7.3.1.=.-.2.4.4.2.4.3.7.3.3.4.4.4.4.-.&.1.<.3.w.9.4.",
"3.3.2.( %   . : 3 = >...P ~ ) ^ h q h X.7.3.3.3.1.=.1.4.4.3.1.1.:.:.1.1.2.3.4.4.-.&.>.3.3.7.3.>.",
">.<.>.7.c o # s > x >.d 4 n X.A w A o.:.3.7.7.7.-.1.3.4.4.4.3.q.3.2.2.1.1.>.3.4.1.&.1.3.w.7.3.>.",
";.>.>.3.+.b ! 7.X.2.[ 3 ; N I t H @.3.7.7.3.7.7.2.<.4.4.4.4.4.2.7.3.3.3.3.3.4.4.1.&.U Q Q W @.>.",
">.>.3.>.3.0.e.0.7.3.V , 4 D p U >.>.3.3.>.>.7.7.4.4.7.3.4.3.4.3.4.4.4.4.4.4.4.4.3.*.g w w t } >.",
"7.7.3.3.>.3.3.>.3.' 5 < M 2 C <.>.>.>.>.>.>.>.3.9.w.7.7.3.3.3.3.>.>.3.3.4.4.4.3.3.:.J j t p #.2.",
"e.y.0.<.2.>.>.>.E 5 , m ) v ` 2.>.>.2.3.3.>.>.>.3.3.3.1.1.3.3.>.>.>.3.>.3.<.>.2.3.<.w.0.Y t } >.",
"e.e.3.>.<.>.2.E 5 , N >.>.3.3.9.3.3.3.7.3.<.>.>.1.<.3.<.3.3.<.3.3.3.2.<.>.>.3.3.3.3.e.w.#.p ] >.",
"3.3.<.<.2.3.' 5 < F ,.>.7.q.e.e.7.3.7.7.7.3.3.>.>.>.3.3.3.3.3.3.7.4.3.>.>.1.4.7.7.3.7.0.+.D { >.",
"<.3.3.7.<.R y y T 3.>.3.3.e.e.e.3.3.3.7.7.7.7.3.3.2.3.3.<.>.7.7.7.<.4.3.>.<.7.7.1.3.3.3.>.X.>.>.",
"2.<.3.3.R n i @.7.3.>.>.3.7.7.3.2.>.>.>.<.3.7.7.3.3.4.3.3.<.3.3.4.3.3.4.4.4.7.7.7.7.7.3.>.>.>.>.",
"3.2.3.>.[ E ..e.7.3.>.>.3.3.3.3.3.>.>.<.3.3.3.3.3.3.7.7.7.3.>.>.>.3.3.7.0.4.3.7.7.7.7.3.>.>.>.>.",
"7.` c ! 2.3.3.4.6.<.>.>.>.3.3.3.3.>.>.>.3.3.<.2.3.w.0.0.7.3.>.>.>.3.3.7.w.7.3.3.7.4.0.3.3.3.>.>.",
"3.z @ l 4.2.>.2.4.<.>.>.>.3.6.6.7.7.3.3.3.4.>.3.7.e.e.7.3.>.3.3.3.>.3.3.7.4.>.3.7.>.>.>.3.0.e.7.",
">.l l ` 0.3.>.>.<.6.3.>.2.3.0.4.3.7.3.>.4.7.4.4.q.7.7.<.>.>.>.7.3.3.<.2.3.>.>.3.7.0.3.3.7.u.y.0.",
"<.>.>.3.4.3.>.>.6.4.4.>.3.0.0.3.3.7.7.3.3.7.7.7.7.3.3.>.>.>.>.>.3.7.3.<.3.>.>.>.7.7.7.3.7.e.e.7.",
"3.>.>.>.>.<.4.4.0.4.>.<.3.0.4.>.3.7.7.e.3.3.0.7.4.>.>.>.<.3.7.7.w.e.7.3.3.3.<.4.3.3.3.3.7.7.7.>.",
"<.2.2.>.>.2.<.6.w.0.3.4.0.3.4.3.4.7.e.7.0.7.7.3.>.>.>.3.w.e.e.u.u.e.7.7.w.9.7.7.<.3.3.>.3.7.4.>.",
"2.4.4.<.>.>.>.2.w.0.4.w.0.3.3.6.3.>.7.7.e.e.w.3.>.>.3.4.e.7.e.e.w.3.3.3.w.7.7.4.3.3.3.4.3.4.3.>.",
"3.4.7.4.<.>.>.>.4.0.0.0.4.3.3.4.>.>.3.7.7.e.7.3.7.3.3.7.3.3.7.7.3.>.>.3.7.7.7.3.3.3.7.7.7.3.>.>.",
">.0.7.3.>.>.>.3.3.7.7.w.3.3.3.>.>.<.3.4.>.>.q.3.3.3.7.4.>.>.>.>.>.>.<.>.>.>.<.3.>.2.4.3.3.3.3.3.",
"3.3.3.3.>.3.3.7.3.4.4.7.3.<.3.2.>.2.3.7.q.4.w.4.3.3.e.7.3.>.<.>.3.2.3.3.>.>.>.>.3.7.7.7.>.>.>.>.",
"7.4.3.>.>.3.0.e.3.2.3.3.3.2.3.7.4.<.7.w.7.w.9.4.3.3.3.3.3.>.4.3.3.3.3.7.2.>.>.7.7.0.7.7.3.>.>.>.",
"w.7.3.>.>.7.e.y.<.>.3.3.<.<.7.0.4.4.4.9.q.7.4.4.3.>.3.3.3.3.7.7.7.2.7.7.3.>.7.7.e.e.e.7.3.<.3.7.",
"7.9.w.>.>.0.y.0.3.2.<.>.>.<.3.7.3.<.2.3.3.3.3.3.3.3.3.7.3.3.0.u.7.>.7.7.3.3.7.7.q.7.4.3.3.3.7.u.",
"7.7.4.>.3.0.t.u.3.>.>.3.2.2.<.4.7.3.3.7.3.3.>.>.>.3.7.e.3.3.7.7.3.<.3.4.3.7.3.3.3.2.<.3.3.2.9.t.",
"7.0.7.>.7.y.t.w.3.>.>.4.3.3.2.4.3.7.e.e.3.>.>.>.>.>.7.7.7.3.3.3.3.3.3.7.7.e.q.7.<.>.>.>.3.4.4.w.",
"3.w.7.>.4.e.u.4.3.3.0.0.0.w.4.>.3.q.e.e.3.>.>.>.3.>.3.4.7.>.>.>.>.>.<.3.7.e.7.w.3.>.>.>.>.4.4.4."
};
