/* XPM */
static char *_ec709559d9d44a2c04576679c66f450BzCZOPGKcKzAIIn3[] = {
/* columns rows colors chars-per-pixel */
"48 48 121 2 ",
"   c #171717",
".  c #1B1A1A",
"X  c #242525",
"o  c #3A2C23",
"O  c #36312F",
"+  c #353535",
"@  c #573A29",
"#  c gray25",
"$  c #484848",
"%  c gray32",
"&  c #5A5B5B",
"*  c #75655C",
"=  c gray43",
"-  c #9F5E38",
";  c #B2683E",
":  c #D5783E",
">  c #B9886B",
",  c #DA834E",
"<  c #D88756",
"1  c #D98A59",
"2  c #E58348",
"3  c #EF884B",
"4  c #F38A4D",
"5  c #FF904F",
"6  c #F58F53",
"7  c #FF9252",
"8  c #F6945C",
"9  c #FD965B",
"0  c #FE995E",
"q  c #DB9265",
"w  c #DB9469",
"e  c #D69774",
"r  c #F69B66",
"t  c #FC9C64",
"y  c #F29E6E",
"u  c #FE9F68",
"i  c #DEA37F",
"p  c #EFA77E",
"a  c #F7A170",
"s  c #FAA675",
"d  c #FBA877",
"f  c #F3A478",
"g  c #F6AB7F",
"h  c #878787",
"j  c gray54",
"k  c #979797",
"l  c #9F9F9F",
"z  c #A6A5A5",
"x  c #ACACAC",
"c  c gray70",
"v  c #BBBBBB",
"b  c #DCA584",
"n  c #DEA886",
"m  c #DFB49C",
"M  c #E0AC8B",
"N  c #F1A981",
"B  c #F0B38E",
"V  c #F8B48D",
"C  c #EFB89C",
"Z  c #F8BA96",
"A  c #F6BF9F",
"S  c #DDB9A5",
"D  c #E3BFA9",
"F  c #E6C0A8",
"G  c #F4C3A7",
"H  c #F9C1A1",
"J  c #F2C5AB",
"K  c #E3CABB",
"L  c #EECEBD",
"P  c #F3CBB4",
"I  c #F1CFBC",
"U  c #F4D2BE",
"Y  c gray77",
"T  c #CDCDCD",
"R  c #DAC7C2",
"E  c #DFCBC3",
"W  c #DCD1CD",
"Q  c #D5D5D5",
"!  c #DFDFDF",
"~  c #E6CFC3",
"^  c #E6D7CE",
"/  c #EBD6C9",
"(  c #EFD8CB",
")  c #F4D5C3",
"_  c #F0D7C9",
"`  c #F2D9CB",
"'  c #E4DBD5",
"]  c #EBDBD3",
"[  c #E4DFDC",
"{  c #EBE2DD",
"}  c #CFD4E0",
"|  c #D1D6E2",
" . c #D5D9E5",
".. c #DADCE4",
"X. c #D6DBE8",
"o. c #DADEEA",
"O. c #DFE0E4",
"+. c #DDE1EB",
"@. c #E5E5E5",
"#. c #EBE5E1",
"$. c #ECE9E7",
"%. c #E2E5EB",
"&. c #E9E7E8",
"*. c #E7E8EB",
"=. c #EBEBEB",
"-. c #ECECEC",
";. c #EEEEED",
":. c #ECEDEE",
">. c #EEEEEE",
",. c #EEEFEF",
"<. c #EFEFEF",
"1. c #F2ECE8",
"2. c #EDEEF0",
"3. c #EEEFF0",
"4. c #EFF0F1",
"5. c gray94",
"6. c #F1F1F1",
"7. c #F2F2F3",
"8. c #F2F3F3",
"9. c #F4F4F4",
"0. c gray96",
/* pixels */
">.>.=.@.@.@.=.1.=.! ! @.-.,.-.@.@.*.=.=.,.=.@.=.,.,.;.;.=.@.@.=.5.8.5.8.=.@.=.=.=.=.-.-.=.@.=.-.",
">.=.@.@.@.>.5.4.=.! k z ! -.=.@.{ *.;.;.,.=.@.-.;.,.;.=.=.@.@.=.;.8.5.-.@.@.@.=.@.=.=.-.=.=.=.,.",
">.=.@.@.=.>.5.2.@.@.h # c =.@.O.O.*.=.5.:.O.O.@.;.;.=.=.=.=.=.=.=.,.=.@.@.=.@.@.@.@.@.=.=.=.=.=.",
"5.>.@.@.@.=.=.@.@.=.T h T { O.@.@.@.=.;.>.{ @.Q v ! =.;.,.8.9.8.8.8.=.=.=.-.-.-.-.=.@.@.@.@.=.O.",
"@.@...@.@.=.=.=.=.@.=.=.>.^ K -.@.@.=.,.5.! z % X $ l 4.8.8.8.;.=.@.=.@.=.=.=.=.=.=.-.-.-.-.=.=.",
"@.@.@.@.=.=.=.>.-.=.=.-.-.K n L ;.@.=.;.4.x X   .   + Y 8.8.;.=.@.@.@.=.@.=.@.=.@.=.-.;.-.-.>.-.",
"$.&.=.=.=.=.=.>.-.-.=.-.5.( q w { ;.@.=.,.v O . . .   = ,.,.=.@.@.=.@.@.@.@.@.=.@.=.-.5.-.-.-.=.",
"5.>.=.=.>.=.>.2.=.=.=.-.5.8.] 1 w ] =.@.{ ! w ; @ .   j =.=.O.{ @.=.=.=.@.=.=.@.=.=.-.;.-.=.@.{ ",
"5.>.>.-.=.=.-.>.=.@.{ *.-.5.>.F , q ^ %.@.W < 2 - o & T @.@.O.@.=.=.%.O.=.@.=.=.>.5.5.-.=.>.5.@.",
"=.=.=.=.@.=.=.=.@.@.O.*.=.-.,.=.n : w ^ =.@.j * > z ! 8.@.=.=.=.=.=.@.{ @.=.=.:.5.5.5.@.=.5.>.@.",
"! @.@.@.@.=.=.@.@.@.=.@.=.=.-.=.{ i : q F ' @.O.| n W 8.=.=.-.,.=.@.{ @.@.@.@.@.=.>.>.=.=.5.=.@.",
"! @.@.@.=.=.@.@.=.-.-.-.>.>.-.=.*.{ i , : < i { m , e O.=.=.=.=.%.O.{ @.@.*.@.@.=.=.=.@.=.=.=.=.",
"! @.@.:.-.=.=.@.-.-.5.5.5.5.-.=.=.,.{ b , : < E r 5 , R =.=.@.@.@.@.@.@.@.@.=.=.$.>.,.=.=.@.=.5.",
"{ @.=.:.>.-.=.-.-.-.>.5.5.9.=.-.=.,.x > B i b E 8 7 2 S +.=.@.@.@.=.@.@.=.,.5.=.@.>.5.=.@.@.5.-.",
"..@.=.:.=.>.=.>.-.-.-.-.>.>.=.-.6.8.! p u J { W 8 7 3 m +.=.@.@.@.=.=.=.5.9.5.=.@.5.>.=.@.=.=.=.",
"=.=.1.4.,.,.>.=.-.-.-.=.@.@.@.=.-.;.6.@.G 9 B W y 7 4 F %.=.=.@.@.@.=.5.5.5.=.=.@.5.5.=.@.,.,.,.",
"-.>.>.=.=.>.5.>.>.>.=.O.! @.@.@.=.=.=.,.=.V 5 g g 7 6 K +.:.=.*.@.=.>.5.5.=.=.=.-.5.5.5.$.=.=.=.",
"5.5.5.=.=.>.5.5.,.=.@.{ @.@.@.@.{ O.@.*.;.{ d 5 9 5 s { %.,.=.*.=.5.8.5.=.@.&.-.>.5.8.9.5.-.=.=.",
"5.5.,.>.=.=.>.=.>.:.>.@.@.@.=.=.=.O.@.=.=.,.^ a 5 5 Z *.*.+.=.,.5.,.8.-.@.@.@.=.5.8.5.5.;.;.-.>.",
"5.5.>.>.@.@.@.=.=.=.5.=.@.@.=.5.-.=.=.=.,.,.O.' V d ( ,.*.*.;.-.>.=.=.=.@.@.@.@.-.5.,.-.-.5.5.=.",
"8.>.=.=.=.@.@.=.=.>.5.>.=.@.=.-.;.,.6.6.6.;.@.,.=.#.=.:.%.%.,.,.=.-.,.-.=.@.@.$.$.=.@.=.=.>.5.=.",
"-.=.=.@.=.>.=.=.=.=.=.5.-.=.@.@.=.8.9.9.6.-.=.-.,.:.:.:.*.+.=.*.@.,.5.5.5.=.-.-.@.@.@.=.=.>.=.@.",
"@.@.@.=.>.4.0.5.>.=.=.>.-.-.=.@.=.;.9.8.8.6.-.-.=.=.*.:.=.+.:.=.$.=.5.5.,.5.,.-.&.@.=.=.,.-.-.@.",
"! @.@.=.=.>.5.5.>.=.@.=.=.=.@.@.@.=.;.4.;.-.-.-.=.-.:.%.+.+.=.=.=.=.=.=.;.5.5.=.@.=.=.=.-.,.=.@.",
"@.=.=.=.=.=.-.-.=.=.=.@.@.@.@.@.@.@.=.=.%.@.+.%.*.>.>.*.*.o.2.2.-.=.=.=.@.=.=.=.@.@.=.-.=.5.=.@.",
"-.=.=.=.@.=.=.=.=.=.@.@.{ ! @.@.@.@.@.@.@.@.O.| X.o.+.+.+.o.*.*.@.@.@.=.=.=.=.@.@.@.=.-.5.5.-.@.",
"9.9.-.=.@.=.@.{ @.=.=.@.O.@.*.@.@.@.&.=.=.&.=.%... . . .X.o.*.*.@.@.=.&.=.@.@.@.@.=.5.8.5.5.-.@.",
"5.>.-.@.=.@.@.@.@.@.=.@.*.=.=.:.=.=.=.>.-.=.>.>.*.%.o.X.| ..=.=.@.=.=.@.@.@.=.=.-.-.5.5.5.=.@.@.",
"=.=.@.=.=.@.=.=.=.=.=.=.=.>.5.5.>.=.>.>.>.>.=.=.>.>.*.%.X...=.*.-.-.=.&.@.@.-.>.-.=.5.>.@.@.@.@.",
"=.=.=.>.=.=.=.:.>.=.$.@.>.5.5.5.>.=.=.>.>.=.>.=.=.*.>.=.o. .,.1.-.=.-.=.@.=.-.-.@.-.=.=.@.@.@.@.",
"=.=.=.=.=.=.>.5.>.=.&.@.=.>.>.>.@.@.@.@.=.=.=.%.:.=.>.=.+...*.>.-.=.-.-.-.-.-.5.-.5.-.=.@.@.@.@.",
"=.@.@.=.@.=.>.8.>.=.@.@.=.=.=.=.=.@.@.=.=.>.=.%.=.=.>.*.X...=.@.@.=.=.-.5.-.=.-.>.>.5.-.@.@.@.@.",
"=.@.! @.@.=.=.,.>.=.@.=.=.=.=.=.=.@.@.=.=.=.>.+.=.=.:.*. ...=.@.@.=.=.:.5.-.=.=.>.=.5.=.=.=.@.@.",
"=.@.@.:.=.=.@.@.=.=.@.@.@.=.=.=.=.>.>.=.:.>.=.+.=.>.:.%.|  .=.=.=.&.=.:.>.=.=.=.>.@.@.@.=.5.5.5.",
"@.@.=.=.,.=.@.@.=.=.=.@.@.>.5.=.=.>.=.=.=.=.*.O.>.=.=.+.| | @.=.=.=.&.=.=.@.@.=.5.5.=.=.,.8.8.5.",
"=.@.=.>.-.=.@.@.=.-.;.@.=.,.5.=.=.>.>.>.=.>.%.*.=.-.:.+.| } ..=.=.-.=.&.=.@.@.&.=.5.>.=.5.5.5.>.",
"=.@.! =.@.=.=.=.5.-.@.=.-.-.-.-.=.>.,.=.=.:.O.=.-.-.>.+.} } ..>.,.5.>.=.=.=.&.=.=.,.=.=.=.5.>.@.",
"@.=.=.@.@.@.=.>.5.-.=.-.-.,.=.$.=.=.,.=.=.=.*.=.>.=.*.+. .}  .4.9.5.>.>.>.5.>.-.@.=.=.@.=.,.=.@.",
"=.=.=.=.@.O.@.=.,.5.-.,.,.-.=.-.=.$.>.=.:.=.=.=.=.>.=.+.} } | >.5.=.=.=.>.5.>.>.=.5.=.=.=.,.=.{ ",
"=.=.=.>.=.{ O.=.-.,.5.,.-.=.=.-.@.@.=.>.=.>.:.>.-.=.%. .} } | *.=.=.@.=.>.-.>.=.=.=.=.,.,.=.@.*.",
"=.-.>.=.@.@.{ -.-.-.5.-.-.=.=.@.@.@.=.=.=.%.+.+.+.+. .} } }  .@.@.@.@.@.@.@.@.=.@.@.=.=.=.@.=.>.",
"=.=.=.=.=.=.-.;.-.-.=.-.-.$.=.=.@.=.*.@...X.X.| | | } } Q R ~ =.=.=.-.=.@.@.@.@.=.>.5.>.&.@.@.@.",
"-.-.=.@.@.=.8.5.=.=.=.=.=.@.=.-.=.=.$.C f L :.=.=.*.*.@.F 0 t U =.=.=.,.=.@.@.5.5.5.5.-.=.@.@.@.",
"5.>.=.@.*.=.5.5.=.@.=.=.=.=.>.5.>.=.=.s 7 ) :.=.=.@.=.:.( 9 5 Z =.=.5.,.=.@.=.,.5.5.5.,.5.@.=.,.",
"-.5.>.@.@.;.9.8.=.=.=.@.@.=.=.=.$.{ G 0 5 U -.=.=.=.=.=.A 7 H 1.5.@.>.5.>.=.>.,.>.=.=.=.=.=.>.9.",
"-.5.>.@.-.5.9.5.=.@.@.=.=.@.=.{ V t 7 0 9 P =.@.@.=.>.` t A >.5.=.@.=.>.=.=.=.=.=.=.=.=.=.=.>.5.",
">.5.-.@.-.5.9.5.=.@.=.=.-.=.=.=.` U ` { ( { @.@.=.@.-.U P =.=.=.=.@.=.5.4.,.5.-.=.@.@.@.=.=.=.5.",
"=.5.-.@.=.8.9.,.@.=.-.5.;.,.=.@.=.,.8.,.=.@.@.@.@.@.=.,.,.@.@.@.@.@.=.=.1.5.5.5.=.@.@.@.&.-.-.=."
};
