/* XPM */
static char *_7284da409f14f1de9b0afe3aaa2b0e7v18vsfnUnufaILVn[] = {
/* columns rows colors chars-per-pixel */
"48 48 111 2 ",
"   c #161616",
".  c #191919",
"X  c #201D1B",
"o  c gray17",
"O  c #3A3A3A",
"+  c #4A3224",
"@  c #5D3D2B",
"#  c #434343",
"$  c #505050",
"%  c #745F52",
"&  c gray40",
"*  c #796960",
"=  c gray45",
"-  c #A8633B",
";  c #B86B3F",
":  c #D5783F",
">  c #D67B44",
",  c #A28371",
"<  c #DF8046",
"1  c #D78350",
"2  c #DA8D5D",
"3  c #EC864A",
"4  c #F58A4C",
"5  c #FC8E4E",
"6  c #FF904F",
"7  c #FF9253",
"8  c #FE975B",
"9  c #FD995F",
"0  c #CD8E69",
"q  c #D78E63",
"w  c #DA9367",
"e  c #DA976D",
"r  c #FC9A61",
"t  c #F29C6B",
"y  c #DDA27D",
"u  c #FDA26D",
"i  c #FBA371",
"p  c #F3A67B",
"a  c #F9A778",
"s  c #FAA879",
"d  c #838383",
"f  c #8E8A88",
"g  c gray57",
"h  c #9D9D9D",
"j  c #AA9D96",
"k  c #AFAFAF",
"l  c #B6B6B6",
"z  c gray",
"x  c #DFA684",
"c  c #DCA788",
"v  c #D8AC91",
"b  c #EEAA84",
"n  c #E2AE8F",
"m  c #F9AD81",
"M  c #F7B38C",
"N  c #E2B497",
"B  c #E3B69A",
"V  c #F8B690",
"C  c #F6BC9B",
"Z  c #D9B7A8",
"A  c #DEC3B4",
"S  c #E6C3AE",
"D  c #ECC2AC",
"F  c #F5C0A2",
"G  c #F4C7AD",
"H  c #E8C8B4",
"J  c #ECCDBC",
"K  c #F3C9B1",
"L  c #F2D1BD",
"P  c #C3C3C4",
"I  c #CACBCB",
"U  c #DDCDC7",
"Y  c #D4CCCF",
"T  c LightGray",
"R  c #DFD4D3",
"E  c #D0D2DC",
"W  c #DDDCDC",
"Q  c #E6D1C6",
"!  c #ECD1C1",
"~  c #E4D5CC",
"^  c #E9D6CA",
"/  c #EBD8CD",
"(  c #F2D5C5",
")  c #E3D8D5",
"_  c #E9DBD3",
"`  c #EDE2DB",
"'  c #CFD4E0",
"]  c #D1D6E2",
"[  c #D4D9E5",
"{  c #D9DCE6",
"}  c #D7DCE9",
"|  c #DADEEA",
" . c #DEE0E1",
".. c #DEE2EB",
"X. c #E5E5E5",
"o. c #ECE6E2",
"O. c #EDE9E6",
"+. c #E3E5EB",
"@. c #E7E8EB",
"#. c #EAEBEB",
"$. c #ECECEC",
"%. c #EEEEEE",
"&. c #F0ECEA",
"*. c #F3F0EE",
"=. c #ECEEF0",
"-. c #EFF0F0",
";. c #EFF0F1",
":. c #EFF1F1",
">. c #F1F1F1",
",. c #F3F3F2",
"<. c gray96",
/* pixels */
"%.%.X.X.X.X.#.%.#. . .X.#.%.%.X.X.X.%.%.$.$.X.#.%.%.%.$.$.X.X.#.*.<.,.:.#.X.#.#.#.$.$.%.#.X.#.$.",
"%.#.X.X.#.%.>.%.#.X.X.X.X.#.X.X.X.X.%.#.$.#.#.#.#.$.$.$.#.X.X.#. .k l #.X.X.X.X.X.#.#.$.$.#.#.$.",
"%.#.X.X.#.%.>.#.X.X.X.` X.#.X. .X.X.%.%.$.X.X.@.#.#.%.#.X.#.#.$.h # h #.X.X.#.X.X.X.X.#.#.#.#.#.",
"%.%.X.X.X.#.#.X.X.X.X.X.X.X.X.X.X.X.#.X.P W X.X.$.%.$.$.%.,.,.,.z d W X.#.%.$.$.$.#.X.X.X.X.X.X.",
"X.X.X.X.X.#.#.#.@.@.X.#.#.#.X.#.X.` g $ o = z X.$.#.#.%.,.*.! ` #.X.#.#.X.#.#.#.#.#.#.#.$.$.$.#.",
"X.X.X.X.#.#.#.%.%.#.@.*.%.%.#.%.@.k o . .   O I %.%.#.%.,.H N ~ X.X.X.#.#.#.X.#.X.#.$.%.$.$.$.$.",
"X.@.#.@.#.#.#.%.%.#.#.%.:.>.%.:.X.$   . . . O T >.,.#.%.~ 2 e ~ X.#.X.X.X.X.X.#.X.#.$.%.%.#.$.#.",
"*.%.#.#.%.#.%.&.%.#.X.#.>.,.%.>.:.&   . @ - c #.%.:.%.^ 2 w ~ X.X.$.#.#.X.#.#.X.#.$.$.*.$.#.X.X.",
"%.%.%.#.#.#.%.%.#.X.X.X.$.*.$.*.<.l O + ; 3 0 X.%.:.^ 2 1 A X.X.#.#.X.X.X.#.#.#.:.%.%.$.$.%.%.X.",
"#.#.#.#.X.X.#.#.X.X.X.X.$.%.%.%.:.*.I f * % j @.:./ 2 < N X.@.X.#.#.X.X.X.#.#.$.%.,.%.X.#.%.%.X.",
"W X.X.X.X.#.#.X.X.X.X.X.@.#.%.#.$.$.Q Z  . .X._ S 2 > c X.#.$.%.#.X.X. .X.X.X.X.#.%.$.#.#.$.$.X.",
"W X.X.X.#.#.X.X.#.%.%.%.%.%.%.@.X.W w < S ` c 1 > > n *.*.#.@.#.X.X. .X.X.X.X.X.#.$.#.#.#.#.#.#.",
"` ..X.#.#.%.#.#.#.%.%.:.>.>.%.#.@.Z < 6 p A 1 : 1 v X.:.$.#.X.X.X.` X.X.X.#.#.#.X.%.%.#.X.#.#.%.",
" .X.#.%.%.#.#.#.%.#.%.&.,.:.#.%...c 3 7 t U q y b , P #.#.#.` X.X.@.X.X.#.%.%.#.X.%.%.$.X.#.#.%.",
"X.X.#.%.%.#.%.#.#.%.#.%.%.#.#.#.+.y 4 7 t W ~ F r x W #.X.#.X.X.X.#.@.#.%.,.,.#.X.%.%.#.X.#.#.#.",
"X.%.%.%.%.%.%.#.%.#.%.#.X.X.X.X...x 4 7 p R M 9 K O.%.#.#.%.#.X.X.@.$.:.,.%.#.X.#.:.*.#.X.%.%.%.",
"$.:.:.#.$.%.:.%.%.%.#.X. .` X...+.B 7 7 M p 7 F %.%.%.%.#.%.#.X.X.#.%.,.%.#.#.#.#.>.*.:.#.$.#.#.",
"%.*.$.#.#.$.:.*.%.#.X. ...X.#.@.@._ r 7 8 6 m O.:.%.>.:.%.%.#.#.#.%.,.%.#.X.#.#.:.,.,.:.%.#.#.#.",
"*.>.*.$.#.#.$.$.#.%.%.X.X.X.#...X.@.a 7 7 p ` #.$.%.>.:.#.X.#.%.%.:.*.$.X.X.X.#.>.,.>.>.%.%.$.%.",
",.:.$.$.X.X.X.#.#.%.:.#.X.X.%...@.#.G u M ) ..X.#.*.:.#.#.#.%.%.$.#.%.#.X.X.X.X.%.%.%.#.#.,.*.$.",
"%.%.#.#.#.X.X.#.#.$.:.$.#.X.X...#.#.#.` %.#.X.@.#.%.%.%.%.%.$.#.#.$.%.%.#.X.X.#.X.#.@.X.O.*.%.#.",
"#.#.#.X.#.$.#.#.#.#.#.%.$.#.X...#.%.#.%.%.#.#.%.%.%.%.#.%.%.$.X.X.%.:.%.$.$.%.#.X.X.X.@.$.%.#.X.",
"X.X.X.#.$.:.<.:.$.#.#.$.%.%.....#.#.#.$.#.#.%.%.@.X.X.#.%.:.%.#.#.#.%.:.:.*.:.$.#.@.@.$.%.%.#.X.",
" .X.X.#.#.$.:.*.:.#.#.O.#.$.......@.@.$.%.#.%.#.%.X.#.#.%.$.%.#.#.#.#.#.%.%.$.#.X.@.O.#.$.%.#.X.",
"X.#.#.#.X.#.%.%.$.O.#.X.X.X.....@.=.#.@.#.@...#.#.%.$.$.O.#.$.#.#.#.X.#.X.#.#.#.X.X.#.$.$.$.$.X.",
"%.#.%.#.#.#.#.X.@.@.X.X. .`  .....+...| } } ..#.%.&.*.$.#.#.#.#.X.#.#.#.#.#.#.X.X.X.#.$.$.:.#.X.",
"<.,.%.X.#.X.X.X.X.#.X.X...X.X...| } [ [ } +.#.#.@.O.$.@.#.#.#.X.X.X.#.X.#.X.X.X.X.$.:.<.*.:.$.X.",
">.%.#.X.X.X.X.X.X.#.#.#.X.#.#.] ' } ....#.#.#.@.X.@.#.@.#.#.#.#.X.#.#.X.X.X.#.#.#.$.*.:.%.#.X.X.",
"#.#.X.#.#.#.X.#.#.#.#.X.@.%.%.[ | @.@.=.#.%.#.#.X.X.#.#.X.#.#.$.$.%.#.#.` #.$.%.$.$.$.:.#.X.X.X.",
"#.#.#.%.#.#.%.%.*.$.X.#.$.>.%.[ | @.%.#.#.#.%.#.#.#.#.#.#.X.%.%.%.#.#.#.X.#.$.$.X.#.#.#.X...X.X.",
"#.#.#.#.#.#.%.>.%.#.X.o.#.$.%.{ ..%.#.%.#.@.$.#.#.#.#.$.$.X.#.#.#.#.#.#.=.%.$.$.$.$.$.#.X.` X.X.",
"#.X.X.#.X.#.#.,.$.@.X.@.@.$.#.{ | @.%.@.#.X.$.$.#.#.%.*.$.#.@.X.X.#.#.%.:.#.$.$.:.:.$.$.X.X.X.X.",
"#.@.` X.X.#.#.#.%.#.X.X.X.#.%.{ } @.#.#.@.+.#.%.#.%.%.>.%.#.X.X.X.#.#.%.&.%.#.#.%.$.%.#.#.#.X.X.",
"@.X.X.#.#.#.X.#.#.#.X.X.X.#.@.W } @.#.%.@...#.%.#.>.%.%.#.X.#.#.#.X.#.#.$.#.X.#.$.@.X.X.#.,.,.%.",
"X.X.X.:.%.#.X.X.#.%.#.X.#.#.@.] [ +.#.%.%...@.#.#.%.%.#.X.X.X.#.#.#.#.#.$.X.@.O.$.%.$.#.%.,.,.%.",
"#.X.X.%.%.#.X.X.#.#.#.X.#.%...] [ ..%.#.%.+.@.#.#.#.@.X.X.X.X.#.%.%.#.X.@.X.o.@.$.*.%.#.%.,.%.%.",
"#.X.X.X.#.#.#.#.*.#.X.#.#.@.{ ' ] ..#.#.#.+.+.%.%.#.X.X.#.%.%.%.*.:.%.%.#.#.@.@.#.$.#.#.#.%.%.X.",
"X.#.X.X.X.X.#.%.,.%.#.#.%.#.' ' } +.=.%.%.#.+.=.#.#.X.#.%.>.>.>.>.%.%.%.%.%.%.$.@.#.#.X.#.%.#.X.",
"#.#.#.#.X.X.X.#.%.:.%.%.%...' ' [ ..#.#.#.%.#.#.%.#.#.#.%.&.>.>.&.#.#.#.%.%.%.%.O.$.$.$.#.$.#.X.",
"#.%.%.#.#.X. .X.%.%.%.%.%.X.' ' ] } @.#.%.#.#.#.#.%.#.%.#.#.%.%.@.$.X.#.$.%.%.#.#.#.$.%.$.#.@.X.",
"X.%.%.%.X.` X.@.#.%.*.%.%.@.' ] ' ] } ....+.+.@.#.#.%.#.X.X.X.X.X.X.X.#.X.X.X.#.@.@.#.$.$.X.#.$.",
"#.#.#.#.@.@.%.%.#.#.#.#.#.#.U Y E ' ' ] ] [ [ } ..+.#.%.#.X.#.X.#.#.#.#.X.X.X.#.#.$.%.$.#.X.X.X.",
"%.%.X.X.X.%.%.:.#.#.#.#.#.D r u J ..+.#.%.#.#.D b H #.%.#.X.#.#.#.#.$.$.#.X.X.$.*.%.%.$.#.X.X.X.",
"%.%.%.X.X.#.:.,.#.X.#.#.` a 6 u ` #.#.:.:.%.:.F 6 M #.#.#.#.%.%.#.#.$.$.#.X.#.%.*.:.%.%.$.#.#.$.",
"%.%.%.X.X.%.,.,.#.#.#.X.#._ p 9 L @.#.#.#.#.#.F 7 i ^ o.#.$.*.,.$.X.$.%.$.#.$.%.%.$.#.#.#.#.%.<.",
"%.%.#.X.#.:.<.,.#.X.X.#.X.#.` s i ` #.%.#.#.@.C 7 7 8 u F O.%.%.$.#.$.$.#.%.$.$.#.#.X.#.#.#.$.*.",
"%.:.%.X.%.:.,.%.#.X.#.#.#.#.%.` C ( :.%.#.@.X./ L ! L K / $.#.#.#.X.#.$.$.%.%.$.#.X.X.X.#.#.$.%.",
"#.%.%.X.#.*.<.#.#.#.%.%.:.%.#.@.#.%.>.*.#.X.X.X.@.@.#.:.%.X.X.X.X.#.#.#.%.:.*.:.$.X.X.X.#.$.$.#."
};
