/* XPM */
static char *S1655624462[] = {
/* columns rows colors chars-per-pixel */
"48 48 191 2 ",
"   c #181A1C",
".  c #221213",
"X  c #341B1D",
"o  c #1E2122",
"O  c #222526",
"+  c #3C2122",
"@  c #323434",
"#  c #3B3E3E",
"$  c #570F12",
"%  c #5A0E11",
"&  c #4D1618",
"*  c #551315",
"=  c #5C1215",
"-  c #5C1619",
";  c #581B1D",
":  c #621316",
">  c #67171A",
",  c #6A1A1D",
"<  c #741619",
"1  c #5B1F21",
"2  c #681D20",
"3  c #7D1D21",
"4  c #4B2C2D",
"5  c #562426",
"6  c #53292C",
"7  c #5A3739",
"8  c #692426",
"9  c #663133",
"0  c #723A3C",
"q  c #49494A",
"w  c #4F5050",
"e  c #595B5B",
"r  c #674A4B",
"t  c #7C4648",
"y  c #6F5B5C",
"u  c #785758",
"i  c #666768",
"p  c #7A6566",
"a  c #7C6B6B",
"s  c #797B7C",
"d  c #941C1F",
"f  c #A4181E",
"g  c #851B21",
"h  c #951E20",
"j  c #BD1D23",
"k  c #9B2224",
"l  c #942E32",
"z  c #833C3F",
"x  c #BA3538",
"c  c #C21C22",
"v  c #CC1D24",
"b  c #D51E25",
"n  c #DB1E24",
"m  c #E41F23",
"M  c #EC1F21",
"N  c #D7252B",
"B  c #DA262C",
"V  c #DA2F33",
"C  c #CB3A3C",
"Z  c #D83639",
"A  c #E52124",
"S  c #EC2123",
"D  c #E9272A",
"F  c #E32A2D",
"G  c #EB282A",
"H  c #E02E31",
"J  c #E73536",
"K  c #D23B40",
"L  c #D93F41",
"P  c #824346",
"I  c #8D5356",
"U  c #825C5D",
"Y  c #AF4B4C",
"T  c #B54145",
"R  c #BA5556",
"E  c #BC5A5C",
"W  c #AA645F",
"Q  c #BF5F61",
"!  c #846667",
"~  c #8D6C6D",
"^  c #946464",
"/  c #96686A",
"(  c #8C6F70",
")  c #906F70",
"_  c #887777",
"`  c #847A7A",
"'  c #9C7476",
"]  c #9F7C7E",
"[  c #A96665",
"{  c #BA6365",
"}  c #B4676A",
"|  c #B36F71",
" . c #BB6F71",
".. c #A8787A",
"X. c #B57273",
"o. c #BC7374",
"O. c #B47679",
"+. c #BC7C7C",
"@. c #CB4446",
"#. c #CB4B4D",
"$. c #D24446",
"%. c #D3494B",
"&. c #CA4F53",
"*. c #DB4F50",
"=. c #C35356",
"-. c #CE5153",
";. c #C15B5D",
":. c #CD5A5C",
">. c #D25355",
",. c #E0494B",
"<. c #C95E60",
"1. c #D35F62",
"2. c #C46364",
"3. c #C2676B",
"4. c #C36B6D",
"5. c #D36C6E",
"6. c #CB6F70",
"7. c #C07274",
"8. c #C87671",
"9. c #C3797A",
"0. c #E3696B",
"q. c #E77A7A",
"w. c #B97F81",
"e. c #7E8181",
"r. c #848484",
"t. c #8D8586",
"y. c #948989",
"u. c #9D8B8B",
"i. c #969696",
"p. c #9C9494",
"a. c #969898",
"s. c #9C9D9D",
"d. c #AA8385",
"f. c #A18788",
"g. c #A2898A",
"h. c #AC8A8A",
"j. c #B38384",
"k. c #BC8384",
"l. c #B68C8C",
"z. c #A48F90",
"x. c #A98F90",
"c. c #B58F90",
"v. c #BA8F90",
"b. c #A49494",
"n. c #AB9394",
"m. c #A29D9D",
"M. c #AE9C9C",
"N. c #B29394",
"B. c #B89697",
"V. c #B3999A",
"C. c #9EA1A1",
"Z. c #A3A4A4",
"A. c #ACA5A5",
"S. c #A6A9A9",
"D. c #ACACAC",
"F. c #B4A3A3",
"G. c #BAA6A6",
"H. c #B1ACAC",
"J. c #ADB0AF",
"K. c #AFB0B0",
"L. c #B3B3B3",
"P. c #B7B9B9",
"I. c #B9B9B9",
"U. c #C68A8A",
"Y. c #D98687",
"T. c #D4908E",
"R. c #D8908D",
"E. c #C28F91",
"W. c #C29493",
"Q. c #D59393",
"!. c #DA9492",
"~. c #D39F9C",
"^. c #DE9E9B",
"/. c #EB8182",
"(. c #E79A98",
"). c #F59895",
"_. c #F39F9D",
"`. c #D7A49F",
"'. c #E2A19F",
"]. c #F9A19E",
"[. c #C7A7A6",
"{. c #DAA5A4",
"}. c #C3B9B9",
"|. c #EBA3A1",
" X c #E7A8A6",
".X c #F9A5A3",
"XX c #F5AAA9",
"oX c #D0C4C2",
"OX c #E0C8C6",
"+X c #E0DFDD",
"@X c #DFE2E1",
/* pixels */
"s.s.s.s.s.i.a.S.A.S.Z.S.Z.i.i.i.i.i.i.i.s.D.S.D.D.k.' s e.[ d.s.s.a.m.K.K.H.K.L.H.C.S.S.A.Z.S.S.",
"D.D.Z.s.Z.Z.Z.Z.Z.s.S.D.D.A.S.S.m.s.s.s.s.C.s.s.b.x + o o 5 T i.Z.Z.Z.Z.Z.C.K.L.L.L.L.L.S.S.D.D.",
"D.D.Z.Z.Z.m.m.S.S.C.A.S.S.Z.S.S.Z.s.s.s.a.s.a.i.P j X     1 c ! C.s.C.Z.Z.C.S.D.D.Z.A.S.C.m.m.C.",
"D.H.D.K.D.D.S.L.L.L.L.L.H.Z.D.D.D.D.D.D.s.Z.Z.e.8 b Y r u $.c 7 i.C.s.H.D.D.D.H.D.a.s.m.s.s.C.s.",
"Z.Z.s.s.C.s.s.Z.s.s.Z.S.S.Z.S.D.s.Z.S.S.Z.Z.S.e 0 0.).XXXX/.1.7 s S.S.S.S.C.A.S.S.S.S.S.m.m.Z.C.",
"A.S.s.m.Z.C.s.s.s.i.s.Z.Z.s.m.m.b.C.Z.Z.C.Z.F.a ^ k.^ +.T.^ U.u u.A.Z.S.S.Z.S.S.S.A.S.S.C.C.Z.Z.",
"I.I.P.P.I.P.s.Z.Z.Z.Z.Z.C.i.s.X.&.m.s.s.p.s.m.!.!.!.W 8.W W R.R.~.C.m.D.H.D.K.D.S.s.A.Z.Z.Z.Z.Z.",
"D.D.S.D.H.D.Z.S.S.m.s.b.z.s.s.4.:.h.S.h. .m.Z.~.].|.T._.).R.|.).[.Z.Z.S.S.Z.Z.A.S.Z.Z.Z.m.s.s.s.",
"S.A.C.D.D.K.K.L.L.S.Z.n.;.c.S.M.b.F.K.+.w.K.K.F.'..XXX.X.XXXXX'.H.D.D.K.K.Z.S.D.S.D.D.D.C.s.m.s.",
"C.Z.C.Z.Z.m.s.K.D.D.D.D.j.n.L.H.V.L.L.V.d.S.Z.Z.B..X^.!.(.(. XG.L.K.A.L.L.L.L.L.L.A.K.K.K.K.K.K.",
"Z.Z.s.m.S.Z.s.D.A.Z.D.D.j.n.D.H.d.A.D.V.| Z.Z.C.A.XX!.I } '. XD.D.S.Z.D.S.Z.S.A.A.Z.S.S.Z.C.Z.Z.",
"D.D.S.S.D.D.D.D.D.Z.D.D.o.F.L.D.O.A.D.D.o.v.K.Z.Z.[.XX]..XXXF.D.D.D.K.K.K.Z.Z.S.S.Z.Z.A.s.s.s.Z.",
"D.H.D.D.K.D.s.s.C.s.s.h.{ Z.L.H.o.F.K.K.h.<.S.D.D.D.^.(.!.W.D.D.D.S.Z.D.K.D.S.K.S.s.s.s.s.s.s.s.",
"D.D.A.S.D.D.s.s.s.s.Z. .} C.D.H.4.V.D.K.h.-.A.A.v.}.OX X`.oX[.+.M.D.Z.D.S.S.A.A.S.s.s.s.s.s.m.s.",
"s.Z.i.s.s.Z.Z.s.Z.s.S.l.#.c.D.D.>.9.F.j.@.9.F.>.N Q.@Xt.s.+X5.b L k.D.S.D.s.s.Z.C.Z.C.m.s.S.H.K.",
"Z.Z.C.s.s.s.s.Z.Z.Z.S.A.9.%.#.#.V V $.>.X.s.2.M n Z E.# q Y.B n M H n.K.K.D.S.D.S.s.m.Z.s.Z.Z.Z.",
"S.A.Z.S.S.Z.Z.H.J.D.D.D.D.b.j.o.Z $.l.m.a.s.$.S B n B 6 6 N b B S S 6.P.L.L.L.L.K.s.Z.Z.Z.Z.Z.Z.",
"L.L.S.J.L.L.L.L.P.S.m.Z.Z.Z.Z.m.@.C b.s.s.p.Z S M b n h g n n M M S L G.L.A.s.m.m.C.s.s.i.s.s.C.",
"D.D.A.D.H.D.C.Z.Z.m.s.s.s.s.S.Z.X.E Z.Z.a.g.H M S A n v j n m S m M S 9.K.A.C.Z.Z.s.Z.Z.m.Z.Z.Z.",
"K.D.K.K.K.K.s.s.s.s.s.s.s.C.P.P.W.4.L.H.s.d.F m M S S b v S S S n M M ,.H.L.K.K.K.Z.L.L.L.L.L.L.",
"D.H.Z.Z.S.S.Z.Z.S.m.D.J.K.K.L.L.N.E Z.Z.C.w.D m m S S A n S S S &.N m G U.S.D.K.K.D.K.K.A.S.K.K.",
"S.S.C.m.Z.Z.m.S.Z.C.D.D.D.D.D.D.n.;.m.n.d.=.m S n S S m n S S N ..Z m M 5.S.S.D.D.A.D.D.Z.Z.S.S.",
"Z.C.Z.C.C.m.s.D.S.D.D.S.S.s.D.A.`.).{.*.A M m S n A S S A S S V <.M M G U.L.L.K.K.C.A.S.S.S.S.A.",
"S.A.s.s.s.s.s.C.s.s.A.D.D.S.D.H. X_._.J M M M S N M S S A S S B V M M K b.s.D.D.D.S.S.S.Z.m.Z.Z.",
"D.D.Z.s.s.s.s.s.s.s.S.D.H.D.K.K.[.q.T.%.$.#.=.} #.S S S S S S G S M F Z h.s.D.K.K.K.K.K.Z.C.S.A.",
"m.C.m.Z.Z.s.i.s.s.s.s.s.s.s.D.D.D.<.N.A.m.D.D.J.>.M S A S S S J q.J 4.E.B.P.P.P.L.Z.D.D.D.D.D.D.",
"Z.Z.s.Z.S.Z.Z.Z.Z.m.m.C.C.C.S.A.S.Q h.S.C.A.A.Z.R n M S G S A x |.E.g.n.C.Z.S.D.D.Z.A.S.Z.S.S.A.",
"D.K.S.D.L.L.L.L.L.S.S.K.D.D.D.D.Z.{ j.D.S.D.D.Z.U < d k k d , 8 Y.V.g.p.s.i.A.D.D.D.S.D.C.A.D.D.",
"L.L.L.L.L.L.S.P.L.L.L.P.L.Z.S.A.S.7.O.S.C.S.S.S.U = = & * * = 8 l.A.w.D.D.D.K.K.D.a.s.a.a.s.s.a.",
"L.K.H.K.L.L.A.L.L.D.D.D.S.s.Z.Z.Z.O.X.S.m.S.A.S.U = - * < - : 0 C.n.w.C.D.A.D.D.D.s.s.m.a.s.s.s.",
"D.K.Z.L.P.P.P.P.I.D.s.Z.Z.C.C.Z.s.k.7.L.L.P.L.S.U : = 9 z = : t x.| b.Z.Z.s.D.L.L.L.L.L.D.S.D.K.",
"Z.S.Z.Z.A.S.Z.D.H.S.S.S.A.s.C.C.s.j.{ Z.Z.H.K.K.! : = r a = = l 3.x.Z.D.D.D.K.L.K.A.D.D.A.S.D.D.",
"Z.Z.C.Z.S.Z.s.D.K.D.D.D.D.s.s.m.C.h.E C.Z.K.K.K.~ : = y _ * : I Z.Z.Z.H.L.K.L.L.L.S.D.H.D.A.S.S.",
"s.m.a.A.H.D.D.D.D.Z.s.m.Z.C.Z.Z.s.n.;.A.D.D.D.Z.! : * a ` - : ^ Z.Z.Z.Z.Z.s.K.L.P.L.P.P.S.i.a.a.",
"a.s.a.s.C.s.s.S.S.Z.Z.Z.Z.a.s.s.s.z.=.m.C.D.S.S.) : & a ` ; : / Z.s.s.Z.Z.m.A.D.A.Z.D.H.S.C.C.m.",
"s.s.s.s.s.s.s.D.D.D.D.D.S.s.s.s.C.b.R p.m.L.K.L.] : & ` y.; > ' S.Z.s.S.S.S.S.D.S.Z.K.K.H.K.H.K.",
"Z.C.p.s.S.Z.Z.Z.Z.s.i.i.i.i.i.i.i.p.R g.s.s.s.s.] , * p s.5 = I Z.Z.C.Z.C.s.D.L.L.K.L.L.S.s.Z.Z.",
"S.A.Z.Z.A.S.s.Z.Z.s.i.a.a.i.a.s.a.p.R f.s.C.C.C..., = u s.4 $ z Z.Z.Z.A.A.C.D.K.H.S.D.D.Z.s.m.C.",
"I.I.I.P.I.L.Z.A.A.S.A.D.S.s.S.A.S.S.2.h.Z.L.P.I.h., = ! D.7 $ t H.K.S.L.L.P.L.L.L.Z.D.K.K.D.K.D.",
"S.Z.Z.S.D.D.S.S.S.Z.Z.D.D.D.D.D.Z.D.4.j.D.K.D.D.u.> = _ L.r $ t Z.Z.C.Z.Z.C.H.K.K.D.K.H.S.s.Z.Z.",
"Z.Z.s.Z.S.A.Z.Z.S.s.S.S.A.A.D.D.Z.S.7.+.D.D.J.S.u.2 : t.L.r = t m.C.C.Z.Z.C.D.L.K.H.D.K.Z.s.s.C.",
"D.D.D.D.D.D.s.Z.Z.Z.Z.Z.Z.s.Z.Z.S.S.O.| Z.K.J.K.b.2 > t.D.u % U D.S.Z.D.D.K.D.D.D.C.S.A.A.S.Z.S.",
"A.S.Z.S.D.D.Z.S.S.m.Z.S.S.Z.S.S.s.s.O.} s.Z.Z.C.u., 8 p.D.y = u H.D.S.H.H.S.D.D.D.S.D.D.m.a.s.s.",
"D.D.Z.D.L.D.L.D.D.S.D.D.D.K.H.K.S.C.j.{ Z.Z.Z.s.h.3 9 S.P.! * ( P.P.P.L.L.D.K.L.L.L.L.L.S.s.s.s.",
"S.Z.S.Z.S.Z.s.s.Z.C.Z.m.m.C.D.J.D.J.B.Q m.D.D.D...f l z.K./ f X.D.D.C.S.S.S.S.A.Z.s.C.Z.Z.m.C.C.",
"D.D.Z.s.m.s.i.s.s.a.s.s.s.s.S.A.Z.A.N.E s.Z.s.s # . 6 y.Z.( & a D.D.Z.Z.A.Z.C.Z.Z.m.C.Z.s.Z.Z.Z.",
"I.I.D.s.s.s.s.s.s.i.s.S.Z.Z.S.Z.s.Z.M.;.A.S.i q w e i a.s.r.O # A.L.L.L.L.S.D.D.H.D.D.K.S.K.L.L.",
"D.A.S.Z.Z.Z.i.s.s.s.s.s.s.i.s.s.a.s.s.g.s.S.S.Z.S.D.A.s.Z.S.r.@ i S.s.C.Z.s.s.Z.s.Z.K.H.D.H.K.L."
};
