/* XPM */
static char *_1655593206[] = {
/* columns rows colors chars-per-pixel */
"48 48 256 2 ",
"   c black",
".  c #010101",
"X  c #020202",
"o  c gray1",
"O  c #040404",
"+  c gray2",
"@  c #060606",
"#  c #070707",
"$  c gray3",
"%  c #090909",
"&  c gray4",
"*  c #0B0B0B",
"=  c #0C0C0C",
"-  c gray5",
";  c #0E0E0E",
":  c gray6",
">  c #101010",
",  c #111111",
"<  c gray7",
"1  c #131313",
"2  c gray8",
"3  c #151515",
"4  c #161616",
"5  c gray9",
"6  c #181818",
"7  c #191919",
"8  c gray10",
"9  c #1B1B1B",
"0  c gray11",
"q  c #1D1D1D",
"w  c #1E1E1E",
"e  c gray12",
"r  c #202020",
"t  c gray13",
"y  c #222222",
"u  c #232323",
"i  c gray14",
"p  c #252525",
"a  c gray15",
"s  c #272727",
"d  c #282828",
"f  c gray16",
"g  c #2A2A2A",
"h  c gray17",
"j  c #2C2C2C",
"k  c #2D2D2D",
"l  c gray18",
"z  c #2F2F2F",
"x  c gray19",
"c  c #313131",
"v  c #323232",
"b  c gray20",
"n  c #343434",
"m  c #353535",
"M  c gray21",
"N  c #373737",
"B  c gray22",
"V  c #393939",
"C  c #3A3A3A",
"Z  c gray23",
"A  c #3C3C3C",
"S  c gray24",
"D  c #3E3E3E",
"F  c #3F3F3F",
"G  c gray25",
"H  c #414141",
"J  c gray26",
"K  c #434343",
"L  c #444444",
"P  c gray27",
"I  c #464646",
"U  c gray28",
"Y  c #484848",
"T  c #494949",
"R  c gray29",
"E  c #4B4B4B",
"W  c #4C4C4C",
"Q  c gray30",
"!  c #4E4E4E",
"~  c gray31",
"^  c #505050",
"/  c #515151",
"(  c gray32",
")  c #535353",
"_  c gray33",
"`  c #555555",
"'  c #565656",
"]  c gray34",
"[  c #585858",
"{  c gray35",
"}  c #5A5A5A",
"|  c #5B5B5B",
" . c gray36",
".. c #5D5D5D",
"X. c gray37",
"o. c #5F5F5F",
"O. c #606060",
"+. c gray38",
"@. c #626262",
"#. c gray39",
"$. c #646464",
"%. c #656565",
"&. c gray40",
"*. c #676767",
"=. c #686868",
"-. c DimGray",
";. c #6A6A6A",
":. c gray42",
">. c #6C6C6C",
",. c #6D6D6D",
"<. c gray43",
"1. c #6F6F6F",
"2. c gray44",
"3. c #717171",
"4. c #727272",
"5. c gray45",
"6. c #747474",
"7. c gray46",
"8. c #767676",
"9. c #777777",
"0. c gray47",
"q. c #797979",
"w. c gray48",
"e. c #7B7B7B",
"r. c #7C7C7C",
"t. c gray49",
"y. c #7E7E7E",
"u. c gray50",
"i. c #808080",
"p. c #818181",
"a. c gray51",
"s. c #838383",
"d. c #848484",
"f. c gray52",
"g. c #868686",
"h. c gray53",
"j. c #888888",
"k. c #898989",
"l. c gray54",
"z. c #8B8B8B",
"x. c gray55",
"c. c #8D8D8D",
"v. c #8E8E8E",
"b. c gray56",
"n. c #909090",
"m. c gray57",
"M. c #929292",
"N. c #939393",
"B. c gray58",
"V. c #959595",
"C. c gray59",
"Z. c #979797",
"A. c #989898",
"S. c gray60",
"D. c #9A9A9A",
"F. c #9B9B9B",
"G. c gray61",
"H. c #9D9D9D",
"J. c gray62",
"K. c #9F9F9F",
"L. c #A0A0A0",
"P. c gray63",
"I. c #A2A2A2",
"U. c gray64",
"Y. c #A4A4A4",
"T. c #A5A5A5",
"R. c gray65",
"E. c #A7A7A7",
"W. c gray66",
"Q. c #A9A9A9",
"!. c #AAAAAA",
"~. c gray67",
"^. c #ACACAC",
"/. c gray68",
"(. c #AEAEAE",
"). c #AFAFAF",
"_. c gray69",
"`. c #B1B1B1",
"'. c #B2B2B2",
"]. c gray70",
"[. c #B4B4B4",
"{. c gray71",
"}. c #B6B6B6",
"|. c #B7B7B7",
" X c gray72",
".X c #B9B9B9",
"XX c gray73",
"oX c #BBBBBB",
"OX c #BCBCBC",
"+X c gray74",
"@X c gray",
"#X c gray75",
"$X c #C0C0C0",
"%X c #C1C1C1",
"&X c gray76",
"*X c #C3C3C3",
"=X c gray77",
"-X c #C5C5C5",
";X c #C6C6C6",
":X c gray78",
">X c #C8C8C8",
",X c gray79",
"<X c #CACACA",
"1X c #CBCBCB",
"2X c gray80",
"3X c #CDCDCD",
"4X c #CECECE",
"5X c gray81",
"6X c #D0D0D0",
"7X c gray82",
"8X c #D2D2D2",
"9X c LightGray",
"0X c gray83",
"qX c #D5D5D5",
"wX c gray84",
"eX c #D7D7D7",
"rX c #D8D8D8",
"tX c gray85",
"yX c #DADADA",
"uX c gray86",
"iX c gainsboro",
"pX c #DDDDDD",
"aX c gray87",
"sX c #DFDFDF",
"dX c gray88",
"fX c #E1E1E1",
"gX c #E2E2E2",
"hX c gray89",
"jX c #E4E4E4",
"kX c gray90",
"lX c #E6E6E6",
"zX c #E7E7E7",
"xX c gray91",
"cX c #E9E9E9",
"vX c #EAEAEA",
"bX c gray92",
"nX c #ECECEC",
"mX c gray93",
"MX c #EEEEEE",
"NX c #EFEFEF",
"BX c gray94",
"VX c #F1F1F1",
"CX c gray95",
"ZX c #F3F3F3",
"AX c #F4F4F4",
"SX c gray96",
"DX c #F6F6F6",
"FX c gray97",
"GX c #F8F8F8",
"HX c #F9F9F9",
"JX c gray98",
"KX c #FBFBFB",
"LX c gray99",
"PX c #FDFDFD",
"IX c #FEFEFE",
"UX c white",
/* pixels */
"G.G.F.F.F.S.S.R.R.T.R.E.T.B.Z.Z.C.V.C.B.D.~.!.!.^./.~.S.G.H.F.F.F.S.K.).).(._.`.(.L.E.E.R.R.R.R.",
"/./.I.K.U.U.U.Y.Y.H.R.~.!.Q.Q.Q.J.S.H.G.H.K.K.F._.}.{.].].[.E.K.U.U.U.T.T.K.).{.[.].[.[.W.W.^.^.",
"!.!.U.P.U.I.L.T.R.P.R.Q.W.U.E.E.L.H.K.J.S.F.G.S.T.Q.W.R.Q.!.P.H.K.J.J.U.U.K.Q.^.~.T.E.E.L.K.I.P.",
"(.(.(.(.(.^.T.[.[.].].].`.U.^.^.^.^.^.!.G.I.I.I.I.I.L.A.I.I.I.I.I.L.J./.^.^.^.^.!.A.H.H.H.H.H.H.",
"Y.Y.H.G.K.J.H.L.L.F.I.E.R.U.T.R.K.U.E.E.Y.T.R.J.P.T.Y.U.T.T.J.U.W.E.E.Q.!.I.R.!.Q.R.E.W.K.J.I.P.",
"R.R.K.J.P.P.G.G.G.Z.K.U.I.L.P.P.F.L.Y.U.P.U.U.G.K.U.I.P.Y.Y.J.U.E.R.R.W.Q.P.R.!.Q.R.W.W.L.K.U.U.",
".X.X.X.X.X|.K.I.I.I.I.I.L.V.H.H.H.H.H.F.N.F.F.F.F.F.S.Z.U.U.U.U.U.P.J.^.^.^.^.^.!.H.T.T.T.T.T.T.",
"!.!.T.~.).(.R.E.E.L.H.L.K.F.H.J.S.P.T.Y.P.Y.Y.H.K.I.P.L.Y.Y.J.I.T.Y.U.W.W.I.Y.E.R.I.Y.T.H.D.G.G.",
"W.Q.P.Q.).).)._.`.R.P.T.T.Y.R.R.L.~.`._.(.).).T.R.~.!.!.^.^.U.Q.(./.^.(.(.Y.E.^.~.~.^.^.P.F.J.J.",
"I.U.I.I.U.P.K.(.(./././.~.T.[.[.[.[.{.'.L.Y.T.Y.Y.Y.I.I.'.'.'.'.'.).E.].].'.'.]._.T._._.).(.(.(.",
"I.U.J.L.I.P.L.W.W.Y.E.Q.W.T././.Q.!.^.~.P.U.U.K.K.P.K.K.W.W.T.W.~.Q.T.~.~.E.E.Q.E.P.E.E.U.I.Y.Y.",
"/.(.Y.E././.^.^.^.U.Q.).).).).).T.W././././.(.U.U.E.E.E.E.E.K.W././././.(.I.U.W.W.E.E.W.H.G.K.K.",
").)././.(./.G.K.L.J.K.L.J.L._.).(.(.)./.Y././.~.~.^.!.P.!.!.W.!.~.Q.U././.~.~.^.!.D.J.J.H.G.H.H.",
"Q.Q.E.W.Q.W.D.G.H.F.K.L.J.L.(.(.~.^./.^.Y.~.^.Q.^./.~.U.~.~.W.W.Q.E.I.~.~.W.E.W.E.S.G.G.F.J.K.K.",
"L.L.A.G.P.P.P.L.P.F.Q.).(.(.(.).Y.Q.).).).(.).R.).{.{.{.{.{.W.R.~.~.~.!.~.K.H.I.P.I.P.I.F.!.).).",
"U.Y.L.H.J.H.G.T.T.Y.W.!.W.L.R.R.U.Y.R.Y.F.J.J.F.J.L.J.K.Q.Q.T.T.R.Y.U.(.(.!.Q.~.Q.G.K.L.J.I.U.U.",
"W.W.R.Y.Y.U.P.(.(./.^.^.!.J.R.R.T.T.R.Y.C.D.F.D.G.H.F.H.~.!.Q.!.~.Q.R.{.{.].'.]._.J.U.U.I.U.U.U.",
"'.'.W.).{.[.[.{.}.W.K.U.U.I.I.U.S.S.H.G.G.G.G.A.~.`.`.`.`.'.E.^.'.`.`.'.'.T.G.K.K.J.J.J.Z.G.L.L.",
"!.!.R.~.(./.U.T.T.J.D.G.F.H.R.R.I.P.U.I.Z.Z.Z.V.K.I.P.I.Q.Q.Y.R.Q.W.R.^.^.T.P.U.P.H.U.U.K.I.Y.Y.",
"_._._._._.(.D.H.H.H.J.J.G.P.{.{.{.[.[.'.D.D.F.F.D.D.A.D.!.Q.Q.!.!.W.U.`.`.`.`.`.).R.'.'.'.'.'.'.",
"/./.Y.U.W.E.Y.T.T.K.!._.)._.].].E.L.Y.U.L.L.L.A.C.D.S.S.F.F.A.~._.).)._.`.E.!.).(./.).).R.!.).(.",
"E.E.K.K.U.I.P.T.T.L.Q.(./.!././.Y.J.P.L.G.H.H.Z.V.A.Z.C.S.S.Z.R.!.Q.!.(.(.R.Q.^.~.E.Q.!.U.R.!.Q.",
"P.P.P.P.I.L.G.!.!.!.!.!.E.J.!.!.!.!.!.W.C.D.D.D.D.D.A.C.I.I.I.P.P.K.P.'.'.'.'.'.).L.W.W.W.W.W.W.",
"E.E.K.D.H.G.F.K.K.F.E.~.~.W.~.~.I.G.J.J.S.D.D.C.J.I.P.L.U.Y.G.A.D.D.D.J.J.G.Q./.^.W.!.!.I.K.I.I.",
"^.^.P.F.K.J.H.J.J.D.W.(././.)._.Y.G.K.K.J.L.L.F.T.!.Q.Q.~.~.P.F.K.J.H.J.J.F.^.`._.(.)._.T.P.T.T.",
"P.I.P.P.P.K.V.G.G.G.H.H.F.G./.^.^.~.^.Q.I././././.(.~.R.}.}.{.{.}.].!.|.|.|. X X{.T././././././.",
"U.U.J.I.R.T.L.U.U.J.J.L.K.L.E.E.I.Y.R.T.P.E.E.U.Q.^.~.Q._._.Q.I.Y.I.J.Y.Y.I.Q.^.!.U.E.E.I.T.W.W.",
"(.(.T.(.[.].].].[.W.W.(./.^.^.^.I.T.!.!.Q.Q.!.I.).{.[.[.[.[.R.A.G.F.F.G.G.Z.R.~.~.!.Q.!.P.E.^.^.",
"{.{.[.[.{.].Q.{.{.[.[.{.'.I.W.W.E.E.W.R.J.W.W.E.W.Q.E.L.~.~.Q.E.W.T.P./././.(.).^.A.S.D.S.S.D.D.",
").)./.`.].`.!.'.].(.~.^.!.J.U.U.P.R.W.E.P.W.W.Y.U.Y.I.H.T.T.I.U.Y.U.K.W.W.R.~./.~.G.H.H.D.D.G.G.",
"/.(.T.'..X X X X.X!.J.I.I.I.I.U.H.(.[.[.[.[.[.E.I.R.R.R.R.R.H.J.U.I.I.I.I.H.(.[.[.[.[.[.W.Q.(.(.",
"Y.Y.I.Y.R.T.U.(.(.!.E.W.E.F.K.K.J.I.U.I.U.).).^.~.^.!.J.U.U.P.P.I.L.P././.~.).`.).T.^.^.Q.Q.!.!.",
"I.I.P.U.Y.I.L././.~.!.~.Q.F.L.L.K.L.P.K.P._._.(./.(.^.J.Y.Y.U.U.Y.I.I.`.`._.'.].`.T./.(.~.W.W.W.",
"K.K.S.E././././.(.I.J.I.I.I.I.I.F.R.~.~.~.~.^.L.H.P.P.P.P.I.S.K.U.U.U.U.U.J._.}.}.}.}.|.R.V.A.A.",
"S.S.Z.H.L.J.K.E.E.U.P.U.I.S.G.G.S.J.L.K.L.!.!.T.Y.R.Y.F.K.K.G.J.L.K.F.I.I.K.E.!.W.T././.R.K.L.L.",
"H.H.H.H.H.F.G.^.~.~.~.~.Q.S.K.K.K.K.K.H.L.`.`.`.'.'._.K.R.R.T.T.R.U.J.Q.Q.Q.Q.!.E.I._._.).).).).",
"P.P.D.J.U.U.U.Y.T.F.V.A.Z.C.C.C.m.Z.F.D.D.G.G.A.R.~.!.Q.Q.!.L.J.I.I.P.I.I.H.^.`.`._.`.'.T.J.I.I.",
"E.E.I.T.W.E.L.I.I.F.Z.S.A.C.S.S.C.S.G.F.F.P.P.J.E.~.!.T.Q.!.U.I.T.Y.P.T.T.P.~.).(.Q.^./.Y.K.I.P.",
"XXXXXXXXXX|.I.W.W.W.W.W.R.H.W.W.W.W.W.R.R.|.|.|.|.|.[.E.].].].].].`.W.{.{.{.{.{.'.Y.(.(.(.(.(.(.",
"R.R.P.E.~.!.R.E.E.P.E.~.~.Q.~.~.Y.W.^.~.~.).).W.(.'.'.).`.'.E.P.Y.U.P.Y.Y.L./.`._./.)._.T.J.P.P.",
"U.U.H.Y.W.W.T.R.E.L.R.~.!.Q.~.~.U.W.^.~.~./.(.R.^.`.`.(._.`.T.J.P.P.L.I.I.J.^._._./.).).Y.G.K.K.",
"/././././.~.G.U.U.U.U.U.P.D.T.T.T.T.T.U.P._.).).).)./.P.~.~.!.!.!.W.P.(.(.(.(.(.~.J.R.R.R.R.R.R.",
"W.W.U.R.!.Q.U.R.R.L.U.R.T.I.R.E.L.H.K.J.H.U.U.L.W.~.!.T.Q.Q.Y.Q.^.~.Q./.(.E.!./.^.E.!.!.I.D.G.G.",
"/./.Y.!._.).(.).).R.!.).).)._.`.T.L.Y.U.U.U.U.H.~.`._._.`.`.W._.}.}.{.{.{.!.).{.[.].[.{.R.D.H.H.",
"T.T.T.R.R.Y.D.P.P.L.P.P.K.K.(.(./././.~.P.~.~.!.~.^.!.I././.^.^./.~.K.E.E.R.E.E.T.F.I.I.P.L.L.L.",
"Q.!.Y.H.K.H.Z.F.F.S.G.J.H.H.R.R.U.R.W.E.L.R.R.I.K.P.K.D.P.P.L.W.~.Q.I.R.E.I.U.T.Y.H.P.I.J.I.Y.Y.",
"OX+X/.F.J.J.J.J.J.Z.L.T.T.T.T.T.H.Y.!.Q.Q.!.!.J.C.D.S.S.S.S.C.(.[.[.].].[.W.Q.(.(.(.(.).T.).[.[.",
"!.!.R.U.U.I.Z.F.G.D.G.H.G.V.D.F.S.F.G.F.H.!.!.W.R.E.T.G.U.U.U.W.!.W.H.P.P.J.K.L.J.P.).(.^.)._._."
};
